<?xml version="1.0" encoding="utf-8"?>
<!-- Generator: Adobe Illustrator 22.1.0, SVG Export Plug-In . SVG Version: 6.00 Build 0)  -->
<svg version="1.1" id="Layer_1" xmlns="http://www.w3.org/2000/svg" xmlns:xlink="http://www.w3.org/1999/xlink" x="0px" y="0px"
	 viewBox="0 0 100 100" style="enable-background:new 0 0 100 100;" xml:space="preserve">
<style type="text/css">
	.st0{fill:#693812;}
	.st1{fill:#7D481D;}
	.st2{fill:#40A52B;}
	.st3{fill:#48BC34;}
	.st4{fill:#07B432;}
	.st5{fill:#1DBE37;}
	.st6{fill:#119F2E;}
	.st7{fill:#734729;}
	.st8{fill:#73482A;}
	.st9{fill:#40A42A;}
	.st10{fill:#41A02A;}
	.st11{fill:#5F3715;}
	.st12{fill:#FFFFFF;}
</style>
<path class="st0" d="M99.7,63.1c0.1-0.1,0.1-0.2,0.2-0.3C99.8,62.9,99.8,63,99.7,63.1z"/>
<path class="st1" d="M33,33.1c-0.1,0.6,0.2,0.7,0.7,0.9c0.7,0.3,1.3,0.7,1.4,1.7c-1.8-1.4-3.3-0.6-4.9,0.3c-1.4-2.3-0.6-4.5,0.2-6.8
	c0.8,0.1,0.7,0.5,0.4,1c-0.3,0.5-0.9,0.9-0.7,1.7c1.1-0.2,1.2-1.3,1.9-2c0.6,0.9,0.5,2,1.3,2.6C33,32.6,33,32.9,33,33.1z"/>
<path class="st2" d="M43.9,28.6c1.9,1,3.2,0.9,4-0.2c0.8-1.1,0.9-2.5,0.2-3.5c-0.9-1.2-2.4-1.3-4.3-0.3c-1.1-1.4-2.5-1.5-4.1-1
	c-0.4-0.7,0.1-1.5-0.6-2.1c-0.6-0.5-1.2-0.7-1.9-0.9C37,20.1,37.1,19.5,37,19c-0.1-0.5-0.3-0.9-0.4-1.4c0.2,0,0.4,0,0.6-0.1
	c1.5-0.1,1.5-0.2,1.3-1.6c-0.2-1.4,1-2.4,2.3-2C42,14.2,43,15,44,15.6c0.7,0.4,1.4,0.6,2.1,0.8c0.7,0.2,1.3-0.1,1.7-0.7
	c0.6-0.8,0.7-1.7,0.2-2.6c-0.4-0.7-0.9-1.1-1.8-0.8c-0.1,0.6,0.6,0.9,0.7,1.3c0.2,0.5,0.4,0.9,0,1.4c-0.4,0.4-0.8,0.4-1.3,0.3
	c-2.5-0.7-4-3.3-3.3-5.8c0.7-2.5,2.4-4.1,5.2-4c0.5,0,1,0,1.5,0C50.6,5.6,51.9,7,52,8.7c0.1,1.6-0.2,3-0.9,4.4
	c-0.2,0.4-0.7,0.9,0.1,1.2c0.9-0.3,1.4-1,2.1-1.6c0.5-0.4,1.1-0.7,1.7-0.4c0.7,0.3,0.8,0.9,0.9,1.5c0.2,0.8-0.6,1.1-1,1.5
	c0.3,0.9,0.8,0.4,1.2,0.3c1.4-0.6,1.5-0.6,2.2,1c-1.2,1.4-1.8,3-1.9,4.9c-0.7,0.2-1.7,0-2.2,1c-0.3,0.7-0.6,1.5-0.9,2.4
	c-0.7-0.3-1.4-0.2-2.1,0.1c-1.1,0.6-1.3,1.6-0.4,2.5c1.1,1.2,2.5,1,3.9,0.8c0.5-0.1,1-0.3,1.6-0.5c0.2,1.2,0.9,2,1.7,3
	c-1.4,0-2.7,0.4-4,0.1c-1.8-0.3-3.7-0.1-5.4,0.5c-1.5,0.6-2.9,0.6-4.4-0.1c-0.5-0.3-1-0.4-1.4,0.2c-0.3,0.4-0.7,0.4-1.1,0.4
	c-0.6,0-1-0.3-1.5-0.5c-1.6-0.8-1.6-0.8-2.9,0.4c-0.8,0.7-1.4,0.7-2.1-0.2c-0.3-0.3-0.3-1-1-0.8c-0.5,0.2,0,0.7-0.2,0.9
	c-0.6,0-0.9-0.9-0.8-2.2c1.3,0.2,2.6,0.5,3.8-0.5c0.2-0.2,0.4,0,0.6,0.1c1.3,0.3,2.7-0.2,4,0.3C42.4,29.5,43.2,28.9,43.9,28.6z"/>
<path class="st3" d="M44,27.5c-1.4,0.7-2.9,1.6-4-0.3c-0.7,0.1-0.5,1.3-1.5,1.1c-0.7-0.2-0.9-0.9-1.4-1.1c-0.3,0.1-0.4,0.2-0.4,0.4
	c-0.5,1.1-1.1,1.4-2.3,1c-0.7-0.2-1.3-0.6-2,0.1c-0.4,0.4-0.9,0-1.3-0.3c-0.4-0.2-0.6-0.8-1.2-0.7c-0.7,1.7-0.7,1.7-3.7,0.5
	c-0.4,0.5-0.5,1.3-1.5,1.2c-0.7-0.1-1.2-0.6-1.8-0.9c-1.2,2-2.7,0.7-4.1,0.3c-0.5,0.5-0.4,1.5-1.5,1.3c-0.7-0.1-1.2-0.4-1-1.3
	c-0.7,0.2-1.2,0.1-1.4,0.9c-0.2,0.8-1.2,0.7-1.7,0.9c-0.5-0.1-0.3-0.6-0.7-0.7c-0.7,0-1.3,0.9-2.2,0.4c-0.2-1,0.9-2.7,2-3.2
	c1.2-0.6,2.6,0.1,3.8-0.1c0-0.3,0.1-0.4,0.1-0.4c-0.8-1.6-0.4-2.3,1.4-2.3c0.4,0,0.9,0,1.3,0.1c0.4,0.2,0.8,0.5,1.2,0.4
	c0.4-0.5,0-0.8-0.2-1c-0.6-0.6-0.5-1.2,0.1-1.7c0.8-0.7,2-0.9,3-0.5c0.1,0.1,0.2,0.2,0.3,0.2c0.1,0.1,0.2,0.1,0.3,0.1
	c0.5-0.3,0.4-0.7,0.2-1.1c-0.2-0.6-0.1-1.1,0.2-1.7c0.7-1.3,2-1.4,2.9-0.2c0.3,0.4,0.4,1,1.2,1.1c0.2-0.6,0.2-1.2,0.4-1.8
	c1-2.8,4.7-3.2,6.4-1.4c2.3,2.6,1.7,5.7-1.5,7c-0.9,0.4-1.9,0.6-2.9,0.5c-0.6,0-1.1-0.2-1.4-0.8c0.8-0.7,1.9,0.2,2.6-0.7
	c-1-1.1-3.3-0.6-3.7,0.6c-0.2,0.7,0.1,1.1,0.7,1.4c0.7,0.4,1.5,0.6,2.3,0.5c2.2-0.3,4.2-0.9,5.5-2.8c0.5-0.7,1.1-0.8,1.7-0.5
	c0.7,0.3,0.5,1,0.4,1.6c-0.1,0.7-0.8,1.2-0.7,1.9c0.4,0.3,0.6,0.1,0.9-0.1c0.5-0.4,1.1-0.6,1.7-0.9c0.7-0.3,1.3-0.2,1.9,0.2
	c0.5,0.4,1,0.8,0.7,1.5c-0.1,0.2,0.2,0.4,0.4,0.4c0.4,0,0.4-0.4,0.6-0.6c0.6-0.9,1.7-1.2,2.7-0.9c0.8,0.3,1.1,1.1,0.8,2
	c-0.5,1.2-1.3,1.7-2.2,1.3C44.9,28.2,44.5,27.8,44,27.5z"/>
<path class="st4" d="M27.6,48.9c0.8,0.7-0.4,1.4,0.4,2.1c1.1-0.9,1.7-3,3.8-2.3c0.2,0.8-0.8,1.2-0.7,2c0,0.1,0.1,0.2,0.1,0.2
	c1.5,1,1.6,1.8,0.4,3.2c-1,1.1-2.9,1.5-4.4,0.9c-0.6-0.2-1.1-0.5-1.6-0.8c-2.1,1.5-2.3,2.3-4.8-0.5c-0.3,0-0.4,0.1-0.5,0.3
	c-0.7,1.2-1,1.3-2.2,0.8c-0.2-0.1-0.4-0.2-0.6-0.3c-1.3-0.6-1.3-0.6-1.9,0.7c-0.2,0.4-0.4,0.7-0.8,0.9c-1.2,0.6-2.5,0.9-3.9,0.4
	c-0.7-0.2-1-0.9-0.9-1.6c0.1-0.9,0.6-1.5,1.4-1.6c0.4,0,0.9,0,1.3,0.1c0.4,0.1,0.8,0.3,1.1-0.1c0.1-0.4-0.2-0.7-0.4-1.1
	c-0.4-1,0-1.9,0.9-2.3c0.8-0.3,1.5,0,2.1,1c0.3,0.6,0.2,1.4,1,1.8c0.5-0.4,0.3-1,0.2-1.5c0-1.4-0.1-2.7,0.6-4
	c1.4-2.7,4.4-2.6,6.2-1.5c0.6,0.3,0.9,0.9,1.1,1.5c0.4,1.1-0.3,3.2-1.4,3.9c-0.9,0.6-2.1,0.5-3.2-0.3c0.5-1.1,0.6-1.1,2.4-0.8
	c0.3-0.3,0.3-0.6,0-0.8c-0.7-0.5-2.4-0.2-2.9,0.5c-0.6,0.9-0.4,1.9,0.7,2.6c1.3,0.9,3.2,0.4,4.3-1.2C26.1,50.4,26.6,49.5,27.6,48.9z
	"/>
<path class="st5" d="M64.8,21.6c1.1-0.3,1.9-1.3,3.1-1.1c1.1,0.1,1.9,1.2,3,1.1c0.2,0.9-0.4,1.1-0.9,1.4c-0.5,0.3-1.1,0.4-1.5,0.9
	c0.5,0.6,1.1,0.3,1.6,0.2c0.8-0.3,1.6-0.5,2.5-0.4c0.3,0,0.5,0,0.8,0.1c0.7,0.2,1.1,0.8,1.2,1.5c0.1,0.7-0.6,1-1.1,1.1
	c-1.3,0.3-2.7,0.5-4.1,0.2c-1.3-0.2-2.7-0.6-4,0.2c-0.3,0.2-0.7,0.1-1-0.1c-0.9-0.5-1.9-0.4-2.8,0c-1.3,0.5-2.6,0.9-3.8-0.3
	c-0.3-0.4-0.7-0.2-1.1,0.1c-0.9,0.6-1.9,0.8-2.9,1c-1,0.2-2,0-2.5-1.1c0.9-1.1,0.9-1.1,3-0.3c0.3-0.2,0.4-0.4,0.3-0.8
	c-0.1-0.4-0.1-0.9,0-1.3c0.5-1.6,1.4-2,2.5-0.8c1.5,1.6,3.3,1.4,5.1,1.3c1-0.1,1.5-0.8,1.4-1.8c-0.1-1-0.7-1.8-1.8-2.1
	c-0.8-0.2-1.4,0.1-1.9,0.8c0.4,0.5,0.8,0.5,1.2,0.2c0.7-0.3,1.2,0.1,1.3,0.7c0.2,0.7-0.4,0.8-0.9,0.9c-1.1,0.3-2.2,0.3-3.1-0.5
	c-1-0.9-1-2-0.7-3.1c0.5-1.8,1.6-3.1,3.4-3.8c0.9-0.4,1.7-0.1,2.5,0.5c1.4,1.1,1.7,2.6,1.1,4.3C64.7,20.9,64.6,21.2,64.8,21.6z"/>
<path class="st6" d="M77.6,41.7c-0.5,0.2-0.5,0.5-0.7,0.7C76,43.8,74,43.9,73,42.6c-0.5-0.6-0.4-1.3,0.2-2c0.6-0.7,1.3-0.5,1.9,0
	c0.5,0.4,0.9,0.9,1.6,0.3c0.2-0.5-0.5-0.6-0.5-1.1c1.1-0.8,2-0.1,2.8,0.5c0.4-0.2,0.6-0.4,0.4-0.8c-0.2-0.3-0.4-0.6-0.5-0.9
	c-0.2-0.6,0.1-1.2,0.7-1.4c0.5-0.2,0.9,0.1,1.2,0.6c0.3,0.6,0.6,1.3,1,1.9c0.9,1.6,2.4,2.3,4.1,2c0.6-0.1,1.2-0.4,1.3-1.2
	c0.2-1.2-0.3-2.2-1.2-2.6c-0.7-0.4-1.3-0.3-1.8,0.4c0.2,0.6,0.7,0.3,1,0.5c0.6,0.3,1.2,0.6,1,1.4c-0.1,0.6-0.8,0.8-1.7,0.6
	c-1.4-0.5-3-2.4-3.1-3.9c0-0.1,0-0.3,0-0.4c0.5-1.5,1.6-2.3,3.1-2.7c1.2-0.3,2.4-0.1,3.3,1c0.3,0.4,0.3,0.8,0.4,1.2
	c0,0.7-0.1,1.4,0.1,2.1c0.8,0.4,1.7-1.8,2.5,0.1c-0.2,0.7-1,0.9-1.3,1.6c0.3,0.8,1.1,0.7,1.7,1c0.5,0.3,1.2,0.5,1.5,1.1
	c-0.7,1.1-1.3,1.4-2.5,1.1c-0.3-0.1-0.7-0.3-1-0.5c-0.8-0.5-1.4-0.3-2,0.3c-1.4,1.4-2,1.4-3.4,0c-0.3-0.3-0.6-0.6-0.9-0.8
	c-0.5-0.4-0.8-0.4-1.1,0.3c-0.7,1.6-2.1,1.8-3.3,0.6C78.1,42.5,78,41.9,77.6,41.7z"/>
<path class="st7" d="M17.4,56c1.9,0.3,2.1,0.2,3.4-0.8c0.8,0.8,1.6,1.4,2.9,1.3c0.4-0.1,0.8-0.1,1-0.3c0.7-0.7,1.4-0.5,2.2-0.2
	c2.2,0.8,4.1,0.4,5.6-1.3c0.7-0.7,1.4-1.4,2.1-2.1c1.2-1.2,2.6-1.1,4-0.7c1,0.2,1.1,0.9,0.4,1.7c-0.5,0.6-1.1,1-1.8,1.2
	c-2.1,0.7-4.1,1.9-6.3,2.6c-2.3,0.8-4.6,1.6-7.1,1.5C21.5,58.7,19.4,57.6,17.4,56z"/>
<path class="st8" d="M71.3,27.7c-0.4,2-1.7,3.3-3.4,4.2c-0.7,0.4-1.4,0.6-2,1c-1.1,0.7-1.8,1.8-2,3.1c-0.1,0.6-0.2,1.1-1,1.3
	c-1.1-1.1-1.2-2.6-1.5-4c-0.2-1.4-0.8-2.5-2.1-3.2c-1-0.5-1.6-1.4-2-2.6c0.8,0.3,1.5,0.4,2,1c1.8,2.1,3.2,1.9,4.4-0.6
	c0.1-0.1,0.1-0.2,0.2-0.4c0.3,0.1,0.7,0.2,0.9,0.3c0.2,0.2,0.1,0.3,0.1,0.4c-0.2,0.8-0.4,1.7,0.4,2.3c0.6,0.4,1.4,0.1,2.4-0.8
	c0.4-0.4,0.8-0.9,1.1-1.4C69.7,27.3,69.7,27.3,71.3,27.7z"/>
<path class="st7" d="M18.5,30.8c1-0.1,1.6,0.3,2.2,0.9c1,1,2,1,2.7-0.1c0.7-1.2,1.7-1.1,2.9-1.3c-0.1,0.8-0.6,1-1.1,1.3
	c-1.5,1.1-1.6,2.3-0.4,3.7c1.7,2,5,2.6,7.1,1.1c0.6-0.5,1.4-0.7,2.2-0.2c0.7,0.5,0.8,1.2,0.7,2c-0.1,0.7-0.9,1.2-2,1.5
	c-2.9,0.6-5.3-0.5-7.7-1.8c-1.8-1-3.2-2.5-4.5-4.1C20,32.7,19,32,18.5,30.8z"/>
<path class="st9" d="M68.4,27.3c-0.5,1.6-1.5,2.3-2.6,1.9C66.2,27,66.2,27,68.4,27.3z"/>
<path class="st10" d="M60.3,28.2c0.8-0.6,1.6-0.6,2.5-0.8c0,0.9-0.5,1.4-1.1,1.6C61.1,29.2,60.6,28.8,60.3,28.2z"/>
<path class="st11" d="M23.1,63.4c-3.2,0.2-6.4-0.3-9.6-0.3c-1.3,0-2.6,0.3-4,0.3c-3.1-0.1-6.1,0.1-9.2-0.3C0,62.6,0,62.2,0.7,62.2
	c0.2,0,0.4,0,0.7,0.1c3.2,0.3,6.4,0.3,9.6,0.1c3.8-0.3,7.6-0.3,11.4,0.1c4.2,0.4,7.1-1.5,9.5-4.5c-1,0.3-2.1,0.7-3.1,1
	c-3.4,1-6.8,1-9.9-0.9c-1-0.6-1.9-1.2-2.5-2.3c-1.2,1.9-3,2.1-4.9,2c-1.6-0.1-2.3-1-2.3-2.6c0.1-1.6,0.9-2.5,2.4-2.6
	c0.3,0,0.6,0,1,0c-0.2-1.2-0.2-2.3,0.9-3c1-0.7,2.1-0.6,3.2,0.1c0.4-0.6,0.3-1.4,0.6-2c1.2-3.4,5.4-4.6,8.3-2.3
	c0.9,0.7,1.3,1.7,1.2,2.9c0.9-0.3,1.8-0.9,2.4,0.2c0.8-0.5,1.5-0.9,2.3-0.8c1.2,0.1,1.6,0.6,1.2,1.8c-0.1,0.3-0.3,0.6-0.4,0.8
	c0,0.3,0.2,0.3,0.4,0.5c0.1,0.1,0.3,0.2,0.4,0.3c1.2-1.1,2.4-2.2,3.5-3.3c1.8-1.8,4-2.4,6.4-2.5c1.3,0,2.6,0,3.9,0.1
	c2.5,0.2,5.1,0,7.6-0.5c1-0.2,2.1-0.5,2.6-1.7c0.5-1.4-0.2-2.8-1.8-3.3c-2.8-0.8-5.7-1.1-8.6-0.1c-2.7,0.9-5.5,1.4-8.4,1.1
	c-0.4,0-0.9-0.1-1.3-0.2c-1.3-0.2-2.6-0.3-4.1-0.2c-4.3,0.5-7.9-1.3-10.9-4.1c-1.6-1.5-3.2-3-4.2-5c-0.2-0.3-0.4-0.5-0.7-0.5
	c-0.5,0-0.9-0.3-1.4-0.5c-1.2,0.8-2.5,1.5-4,0.8c-0.1-0.1-0.3,0.1-0.5,0.1c-0.7,0.2-1.4,0-1.8-0.6c-0.4-0.5-0.3-1.2,0-1.8
	c1.1-2.1,2.7-3.2,5.1-3.1c0.6-2.3,1.1-2.7,3.7-2.7c0.9-2.3,2.3-3.1,4.6-2.8c0.1-1.2,0.5-2.3,1.6-3c1.2-0.7,1.6-0.6,3.2,0.6
	c0.2-0.3,0.3-0.6,0.4-0.9c1.6-2.9,5-3.4,7.3-1.1c0.7,0.7,1.4,0.9,2.2,0.6c0.2-3,1.4-4,4.3-3.5c-0.6-1.5-0.7-3-0.2-4.5
	c1.3-3.9,6.5-5.5,9.8-3.1c0.9,0.7,1.3,1.5,1.4,2.6c0.1,1.3,0.1,2.6-0.3,3.9c2.7-1.6,4-0.9,4.3,2.3c0.5,0,0.9,0.1,1.3,0.3
	c0.4,0.3,0.6,0.8,0.9,1.1c3.5-2.2,6.4-0.2,6.9,4c2-1,3.4,0.6,5.1,1c1,0.2,1,1,0.6,1.8c0.4,0.3,0.9,0.1,1.3,0.1
	c1.3,0.1,2.1,1,2.3,2.2c0.1,1-0.5,1.9-1.8,2.2c-1.1,0.2-1.5,0.8-1.9,1.7c-0.6,1.8-2,2.9-3.6,3.8C67.5,33,66.7,33.4,66,34
	c0.6,1.2,1.5,2.2,2.3,3.2c1.2,1.5,1.7,3.2,1.5,5.1c0,0.4-0.1,0.8-0.1,1.2c0.1,0.8,0.4,1.3,1.3,1.2c0.9-0.1,1.9,0.2,2.8-0.3
	c-0.4-0.3-0.8-0.5-1.2-0.8c-0.9-0.7-1.1-1.7-0.6-2.8c0.4-1,1.4-1.6,2.5-1.3c0.5,0.1,0.9,0.1,1.3-0.3c0.5-0.5,0.7-0.5,2-0.7
	c0.5-1.8,1.1-2.3,2.8-2.3c0.9-2,2.5-3.1,4.6-3.4c2.3-0.3,3.8,1,3.9,3.3c0,0.2,0,0.4,0,0.7c0.9-0.1,1.8-0.8,2.5,0.2
	c0.8,1.1,0,1.9-0.8,2.7c0.7,0.3,1.2,0.5,1.8,0.8c1.4,0.8,1.4,2.4,0,3.2c-1,0.6-2.1,0.6-3.2,0.1c-0.4-0.2-0.7-0.4-1-0.6
	c-0.4,0.2-0.6,0.6-0.9,0.8c-0.2,0.2-0.5,0.6-0.7,0.6c-1.4-0.1-2.2,1-3.3,1.5c-1.4,0.6-2.8,0.7-4.3,0.8c-2.9,0.1-5.8,0.4-8.6,1.1
	c-1,0.2-1.8,0.6-2.3,1.6c-1.3,2.1-3.4,2.8-5.6,3.2c-1.7,0.4-3.4,0.5-5.1,1.1c-0.8,0.3-1.6,0.6-2.3,1c-0.9,0.6-1,1-0.3,1.9
	c1.2,1.7,2.8,2.5,4.8,3c1.8,0.4,3.6,0.2,5.2-0.8c0.5,0.3,0.5,0.8,0.7,1.2c0.5,1.6,1.6,2.3,3.2,2.3c0.5,0,1.1,0,1.6,0
	c1.1-0.1,2.2,0.2,3.3-0.2c1.5-0.1,3.1-0.1,4.6,0c2,0.3,3.9,0.3,5.9,0c1-0.2,2-0.1,2.9-0.1c0.1,0,0.2,0,0.3,0
	c1.4-0.1,2.9-0.1,4.3,0.1c0.4,0.3,0.9,0.2,1.3,0.2c2.4,0,4.8,0,7.2,0l0,0c0,0.1,0,0.3,0,0.4l-0.1,0.1c-0.1,0.1-0.1,0.2-0.2,0.3l0,0
	c-0.5-0.3-1-0.3-1.6-0.3c-5.3,0.1-10.7-0.3-16,0.3c-1.2,0.1-2.3-0.3-3.4-0.3c-2.6,0.1-5.1-0.2-7.7,0.3c-1.4,0-2.9,0-4.3,0
	c-0.9,0-1.4-0.2-1.7-1.1c-0.1-0.5-0.5-1-0.7-1.5c-2.1,0.5-4.1,0.7-6.2,0.3c-2.2-0.5-3.6-2-4.7-3.8c-0.4-0.3-0.6,0.6-1.1,0
	c0.4-1.4,1.3-2.5,2.6-3.3c1.8-1,3.8-1.2,5.7-1.8c1.7-0.5,3.4-0.5,5-1.4c0.3-0.2,0.8-0.2,0.8-0.8c-1-0.3-1.5,0.9-2.4,0.7
	c-0.4-0.7,0.2-0.9,0.7-1.2c2.3-1.2,4.8-2,7.3-2.7c2.8-0.7,5.5-0.7,8.3-0.8c1.3,0,2.5-0.3,3.6-1.2c-0.4-0.9-1-1.1-1.8-0.7
	c-1.5,0.8-3,0.8-4.6,0.3c-0.8-0.3-1.6,0.3-2.2,0.7c-0.8,0.5-1.6,0.8-2.5,0.9c-1.9,0.2-3.7,0.3-5.6-0.2c-0.2-0.1-0.4-0.2-0.5-0.5
	c0.5-0.5,1.3-0.1,1.9-0.4c0.7-3.7-0.4-6.7-3.6-9.1c-0.2,0-0.2,0.3-0.2,0.6c0,0.6-0.2,1-0.6,1.5c-0.7,0.9-1.4,0.9-2.3,0.1
	C61.3,36.9,61,36,60.9,35c-0.1-0.8-0.2-1.7-0.5-2.5c-0.5-1.1-1-1.5-2.1-1c-1.9,0.9-3.7,0.3-5.5,0.1c-1.6-0.1-2.9,0.3-4.4,1.2
	c4.4-0.3,6.2,0.4,7.3,2c-0.4,0.5-0.7,0.4-1.1,0c-1.6-1.4-3.5-1.6-5.4-1.2c-3.3,0.7-6.5,0.8-9.8,0.7c-1.2,0-2.4-0.5-3.4-1
	c-0.8-0.5-1.7-0.7-2.6-0.8c-0.7-0.7-0.7-1.8-1.3-2.6c-0.6,0.7-0.7,1.8-1.9,2c-0.2-0.8,0.4-1.2,0.7-1.7c0.3-0.5,0.4-0.9-0.4-1
	c-0.7,2.2-1.5,4.4-0.2,6.8c1.6-0.9,3.1-1.7,4.9-0.3c-0.1-1.1-0.7-1.4-1.4-1.7c-0.5-0.2-0.8-0.3-0.7-0.9c1.9,0.1,2.5,0.5,3.2,2.6
	c0,0.4-0.5,0.3-0.7,0.6c0.2,0.5,0.2,1,0.2,1.5c0,0.5-0.1,1-0.1,1.5c2.7,0.8,5.4,1,8.2,0.2c0.7-0.2,1.5-0.4,2.2-0.6
	c2.8-1.2,5.6-0.8,8.4-0.4c1.8,0.3,3.5,1.1,4,3.2c0.3,1.2,0,2.1-1.1,2.9c-1.1,0.9-2.5,1.1-3.8,1.4c-1.9,0.4-3.9-0.1-5.8,0.4
	c-0.5,0.1-0.9,0.3-1.2,0.7c-1.1,1.1-2.5,1-4.1,1.3c0.8-1.4,2.3-0.9,3.2-1.7c-4.6-0.6-7.4-0.1-9.7,3.9c0.5,0.2,0.9-0.1,1.4-0.2
	c1.9-0.5,3.7,0.7,3.7,2.5c0,1-0.7,1.5-1.4,2c-0.8,0.5-1.7,0.7-2.6,1c-1.2,0.4-2.2,1-3.1,1.9c-1.6,1.7-3.1,3.4-5.2,4.5 M43.9,28.6
	c-0.7,0.3-1.4,0.9-2.1,0.6c-1.4-0.5-2.7,0.1-4-0.3c-0.2-0.1-0.4-0.3-0.6-0.1c-1.1,1-2.5,0.7-3.8,0.5c-0.1,1.4,0.2,2.2,0.8,2.2
	c0.2-0.3-0.3-0.7,0.2-0.9c0.7-0.2,0.7,0.5,1,0.8c0.7,0.8,1.3,0.9,2.1,0.2c1.3-1.2,1.3-1.2,2.9-0.4c0.5,0.2,0.9,0.5,1.5,0.5
	c0.4,0,0.8,0.1,1.1-0.4c0.4-0.6,0.9-0.5,1.4-0.2c1.4,0.7,2.9,0.7,4.4,0.1c1.7-0.7,3.6-0.8,5.4-0.5c1.4,0.2,2.6-0.1,4-0.1
	c-0.8-1-1.5-1.9-1.7-3c-0.6,0.2-1.1,0.5-1.6,0.5c-1.4,0.2-2.8,0.4-3.9-0.8c-0.8-0.9-0.7-2,0.4-2.5c0.7-0.3,1.4-0.4,2.1-0.1
	c0.3-0.9,0.6-1.6,0.9-2.4c0.4-0.9,1.4-0.7,2.2-1c0.1-1.9,0.7-3.5,1.9-4.9c-0.7-1.5-0.8-1.6-2.2-1c-0.4,0.2-0.9,0.6-1.2-0.3
	c0.4-0.4,1.1-0.8,1-1.5c-0.1-0.6-0.3-1.3-0.9-1.5c-0.7-0.2-1.2,0-1.7,0.4c-0.7,0.6-1.2,1.3-2.1,1.6c-0.8-0.3-0.3-0.8-0.1-1.2
	c0.8-1.4,1.1-2.8,0.9-4.4c-0.1-1.7-1.4-3-3.1-3.2c-0.5,0-1,0-1.5,0c-2.9-0.1-4.5,1.4-5.2,4c-0.7,2.5,0.8,5.2,3.3,5.8
	c0.5,0.1,1,0.1,1.3-0.3c0.4-0.4,0.2-0.9,0-1.4c-0.2-0.5-0.8-0.7-0.7-1.3c0.9-0.3,1.4,0.1,1.8,0.8c0.5,0.9,0.4,1.8-0.2,2.6
	c-0.4,0.6-1,0.9-1.7,0.7c-0.7-0.2-1.4-0.4-2.1-0.8c-1-0.6-2-1.4-3.2-1.7c-1.3-0.3-2.5,0.7-2.3,2c0.2,1.4,0.1,1.5-1.3,1.6
	c-0.2,0-0.3,0-0.6,0.1c0.1,0.5,0.3,1,0.4,1.4c0.1,0.5,0,1.1,0.2,1.6c0.7,0.2,1.3,0.4,1.9,0.9c0.6,0.6,0.2,1.5,0.6,2.1
	c1.6-0.5,3.1-0.4,4.1,1c2-1,3.4-0.8,4.3,0.3c0.7,0.9,0.7,2.4-0.2,3.5C47.1,29.5,45.8,29.6,43.9,28.6z M44,27.5
	c0.5,0.3,0.9,0.7,1.3,0.9c0.9,0.4,1.7-0.1,2.2-1.3c0.3-0.9,0-1.6-0.8-2c-1-0.4-2.1,0-2.7,0.9c-0.2,0.3-0.2,0.6-0.6,0.6
	c-0.3,0-0.5-0.3-0.4-0.4c0.3-0.8-0.2-1.2-0.7-1.5c-0.6-0.4-1.2-0.5-1.9-0.2c-0.6,0.2-1.2,0.5-1.7,0.9c-0.3,0.2-0.5,0.4-0.9,0.1
	c-0.1-0.7,0.6-1.2,0.7-1.9c0.1-0.6,0.3-1.2-0.4-1.6c-0.6-0.3-1.2-0.2-1.7,0.5c-1.3,1.9-3.4,2.5-5.5,2.8c-0.8,0.1-1.6-0.1-2.3-0.5
	c-0.6-0.3-0.9-0.8-0.7-1.4c0.4-1.3,2.7-1.7,3.7-0.6c-0.7,0.9-1.8,0-2.6,0.7c0.3,0.6,0.8,0.8,1.4,0.8c1,0.1,1.9-0.1,2.9-0.5
	c3.2-1.3,3.8-4.4,1.5-7c-1.6-1.8-5.4-1.4-6.4,1.4c-0.2,0.6-0.3,1.2-0.4,1.8c-0.7-0.1-0.8-0.7-1.2-1.1c-0.9-1.1-2.2-1.1-2.9,0.2
	c-0.3,0.5-0.4,1.1-0.2,1.7c0.1,0.4,0.3,0.8-0.2,1.1c-0.1,0-0.2,0-0.3-0.1c-0.1-0.1-0.2-0.2-0.3-0.2c-1-0.4-2.2-0.2-3,0.5
	c-0.6,0.5-0.7,1.1-0.1,1.7c0.3,0.3,0.6,0.5,0.2,1c-0.5,0.1-0.8-0.2-1.2-0.4c-0.4-0.2-0.9-0.2-1.3-0.1c-1.8,0-2.2,0.8-1.4,2.3
	c0,0.1,0,0.2-0.1,0.4c-1.2,0.2-2.6-0.5-3.8,0.1c-1.2,0.5-2.2,2.2-2,3.2c0.9,0.5,1.5-0.4,2.2-0.4c0.4,0.2,0.2,0.7,0.7,0.7
	c0.5-0.3,1.5-0.1,1.7-0.9c0.2-0.8,0.7-0.7,1.4-0.9c-0.1,0.9,0.4,1.2,1,1.3c1,0.2,1-0.9,1.5-1.3c1.4,0.4,2.9,1.7,4.1-0.3
	c0.7,0.3,1.1,0.8,1.8,0.9c1,0.1,1.1-0.7,1.5-1.2c3,1.2,3,1.2,3.7-0.5c0.6-0.1,0.8,0.5,1.2,0.7c0.4,0.2,0.9,0.6,1.3,0.3
	c0.7-0.6,1.3-0.3,2-0.1c1.2,0.4,1.8,0.1,2.3-1c0.1-0.2,0.2-0.3,0.4-0.4c0.6,0.2,0.7,0.9,1.4,1.1c1,0.2,0.8-1,1.5-1.1
	C41.1,29.1,42.5,28.2,44,27.5z M27.6,48.9c-1,0.6-1.5,1.5-2.1,2.4c-1.1,1.6-3,2.1-4.3,1.2c-1.1-0.7-1.3-1.7-0.7-2.6
	c0.5-0.7,2.2-1,2.9-0.5c0.3,0.2,0.3,0.5,0,0.8c-1.7-0.3-1.9-0.3-2.4,0.8c1,0.8,2.3,0.9,3.2,0.3c1.1-0.8,1.8-2.8,1.4-3.9
	c-0.2-0.6-0.5-1.2-1.1-1.5c-1.8-1.1-4.8-1.1-6.2,1.5c-0.7,1.3-0.7,2.6-0.6,4c0,0.5,0.3,1.1-0.2,1.5c-0.8-0.4-0.7-1.2-1-1.8
	c-0.6-0.9-1.3-1.3-2.1-1c-0.9,0.4-1.3,1.4-0.9,2.3c0.1,0.4,0.5,0.7,0.4,1.1c-0.4,0.4-0.8,0.2-1.1,0.1c-0.4-0.2-0.9-0.2-1.3-0.1
	c-0.7,0.1-1.3,0.7-1.4,1.6c-0.1,0.7,0.2,1.4,0.9,1.6c1.3,0.5,2.6,0.2,3.9-0.4c0.4-0.2,0.6-0.5,0.8-0.9c0.6-1.3,0.6-1.3,1.9-0.7
	c0.2,0.1,0.4,0.2,0.6,0.3c1.3,0.5,1.5,0.4,2.2-0.8c0.1-0.2,0.3-0.4,0.5-0.3c2.5,2.8,2.7,2,4.8,0.5c0.5,0.3,1.1,0.6,1.6,0.8
	c1.5,0.6,3.4,0.2,4.4-0.9c1.2-1.4,1.1-2.2-0.4-3.2c-0.1,0-0.1-0.2-0.1-0.2c-0.1-0.8,1-1.2,0.7-2c-2.1-0.7-2.7,1.4-3.8,2.3
	C27.3,50.3,28.4,49.5,27.6,48.9z M64.8,21.6c-0.2-0.4-0.1-0.7,0-0.9c0.6-1.7,0.2-3.1-1.1-4.3c-0.7-0.6-1.5-0.8-2.5-0.5
	c-1.8,0.7-3,2-3.4,3.8c-0.3,1.1-0.2,2.2,0.7,3.1c0.9,0.9,2,0.8,3.1,0.5c0.5-0.1,1.1-0.3,0.9-0.9c-0.2-0.6-0.6-1-1.3-0.7
	c-0.4,0.2-0.8,0.3-1.2-0.2c0.4-0.7,1-1,1.9-0.8c1.1,0.3,1.7,1,1.8,2.1c0.1,1-0.4,1.7-1.4,1.8c-1.8,0.1-3.6,0.3-5.1-1.3
	c-1.1-1.2-2-0.8-2.5,0.8c-0.1,0.4-0.2,0.9,0,1.3c0.1,0.4,0.1,0.6-0.3,0.8c-2.1-0.8-2.1-0.8-3,0.3c0.5,1.1,1.5,1.2,2.5,1.1
	c1-0.2,2-0.4,2.9-1c0.4-0.2,0.7-0.4,1.1-0.1c1.2,1.2,2.5,0.8,3.8,0.3c1-0.3,1.9-0.5,2.8,0c0.3,0.2,0.7,0.3,1,0.1
	c1.3-0.8,2.7-0.5,4-0.2c1.4,0.3,2.8,0,4.1-0.2c0.5-0.1,1.2-0.4,1.1-1.1c-0.1-0.7-0.5-1.3-1.2-1.5c-0.3-0.1-0.5-0.1-0.8-0.1
	c-0.9,0-1.7,0.2-2.5,0.4c-0.5,0.2-1.1,0.4-1.6-0.2c0.4-0.6,1-0.7,1.5-0.9c0.5-0.3,1.1-0.5,0.9-1.4c-1.1,0.1-1.9-1-3-1.1
	C66.7,20.3,65.9,21.3,64.8,21.6z M77.6,41.7c0.5,0.3,0.6,0.8,0.9,1.1c1.2,1.2,2.7,0.9,3.3-0.6c0.3-0.6,0.6-0.7,1.1-0.3
	c0.3,0.3,0.6,0.6,0.9,0.8c1.4,1.4,2,1.4,3.4,0c0.6-0.6,1.2-0.8,2-0.3c0.3,0.2,0.6,0.3,1,0.5c1.2,0.4,1.8,0.1,2.5-1.1
	c-0.3-0.6-0.9-0.8-1.5-1.1c-0.6-0.3-1.4-0.2-1.7-1c0.2-0.6,1.1-0.9,1.3-1.6c-0.8-1.9-1.7,0.4-2.5-0.1c-0.2-0.7-0.1-1.4-0.1-2.1
	c0-0.4-0.1-0.9-0.4-1.2c-0.9-1.1-2-1.3-3.3-1c-1.4,0.4-2.6,1.2-3.1,2.7c0,0.1,0,0.3,0,0.4c0.1,1.5,1.7,3.4,3.1,3.9
	c0.9,0.3,1.5,0.1,1.7-0.6c0.1-0.8-0.5-1.1-1-1.4c-0.3-0.2-0.8,0.1-1-0.5c0.5-0.7,1.1-0.7,1.8-0.4c0.9,0.4,1.3,1.5,1.2,2.6
	c-0.1,0.8-0.6,1-1.3,1.2c-1.8,0.3-3.2-0.4-4.1-2c-0.3-0.6-0.7-1.3-1-1.9c-0.2-0.5-0.6-0.8-1.2-0.6c-0.6,0.3-0.9,0.8-0.7,1.4
	c0.1,0.3,0.3,0.6,0.5,0.9c0.2,0.4,0,0.6-0.4,0.8c-0.8-0.6-1.7-1.3-2.8-0.5c0,0.5,0.7,0.5,0.5,1.1c-0.7,0.5-1.1,0-1.6-0.3
	c-0.6-0.4-1.3-0.7-1.9,0c-0.6,0.7-0.7,1.4-0.2,2c1,1.3,3,1.2,3.8-0.2C77,42.1,77.1,41.8,77.6,41.7z M17.4,56
	c2.1,1.6,4.1,2.7,6.5,2.8c2.5,0.1,4.8-0.7,7.1-1.5c2.1-0.7,4.1-1.9,6.3-2.6c0.7-0.2,1.3-0.6,1.8-1.2c0.7-0.8,0.6-1.5-0.4-1.7
	c-1.4-0.3-2.8-0.4-4,0.7c-0.7,0.7-1.4,1.4-2.1,2.1c-1.6,1.7-3.5,2.2-5.6,1.3c-0.8-0.3-1.5-0.5-2.2,0.2c-0.3,0.2-0.6,0.2-1,0.3
	c-1.2,0.2-2.1-0.5-2.9-1.3C19.5,56.2,19.3,56.2,17.4,56z M71.3,27.7c-1.6-0.4-1.6-0.4-2.4,0.7c-0.3,0.5-0.7,0.9-1.1,1.4
	c-0.9,0.9-1.7,1.2-2.4,0.8c-0.9-0.6-0.6-1.5-0.4-2.3c0-0.1,0.1-0.3-0.1-0.4c-0.3-0.1-0.6-0.2-0.9-0.3c-0.1,0.2-0.1,0.3-0.2,0.4
	c-1.3,2.5-2.6,2.7-4.4,0.6c-0.5-0.6-1.2-0.7-2-1c0.4,1.2,1,2.1,2,2.6c1.3,0.7,1.9,1.8,2.1,3.2c0.2,1.4,0.4,2.9,1.5,4
	c0.7-0.2,0.9-0.7,1-1.3c0.2-1.4,0.9-2.4,2-3.1c0.6-0.4,1.4-0.7,2-1C69.6,30.9,70.9,29.6,71.3,27.7z M18.5,30.8
	c0.4,1.3,1.5,1.9,2.2,2.9c1.3,1.6,2.6,3.1,4.5,4.1c2.4,1.3,4.8,2.4,7.7,1.8c1.1-0.2,1.9-0.7,2-1.5c0.1-0.8,0-1.5-0.7-2
	c-0.8-0.5-1.6-0.3-2.2,0.2c-2.1,1.5-5.4,1-7.1-1.1c-1.2-1.4-1.2-2.6,0.4-3.7c0.5-0.3,1-0.6,1.1-1.3c-1.2,0.2-2.2,0.1-2.9,1.3
	c-0.6,1.1-1.7,1.1-2.7,0.1C20.1,31.1,19.5,30.7,18.5,30.8z M27.2,29.9c0.1,0.8-0.3,1.3-0.8,1.8c-0.4,0.4-0.8,0.7-1.2,1.1
	c-0.4,0.4-0.5,1-0.1,1.4c1,1.1,2.2,1.9,3.8,2c-0.6-2.1-0.5-4.2-0.7-6.2C27.9,29.9,27.6,29.8,27.2,29.9z M37.6,33
	c2.2,0.6,6.5,0.4,8.4-0.5c-0.7-0.2-1.4-0.4-2.1-0.6c-1.3,1-1.6,1-3.5,0.2C38.7,31.5,38.7,31.5,37.6,33z M68.4,27.3
	c-2.2-0.2-2.2-0.2-2.6,1.9C66.9,29.5,67.9,28.8,68.4,27.3z M60.3,28.2c0.3,0.6,0.8,1,1.4,0.8c0.6-0.2,1.1-0.7,1.1-1.6
	C61.9,27.5,61.1,27.5,60.3,28.2z"/>
<path class="st7" d="M99.7,63.1c-0.5-0.3-1-0.3-1.6-0.3c-5.3,0.1-10.7-0.3-16,0.3c-1.2,0.1-2.3-0.3-3.4-0.3
	c-2.6,0.1-5.1-0.2-7.7,0.3c-1.4,0-2.9,0-4.3,0c-0.9,0-1.4-0.2-1.7-1.1c-0.1-0.5-0.5-1-0.7-1.5c-2.1,0.5-4.1,0.7-6.2,0.3
	c-2.2-0.5-3.6-2-4.7-3.8c-0.4-0.3-0.6,0.6-1.1,0c0.4-1.4,1.3-2.5,2.6-3.3c1.8-1,3.8-1.2,5.7-1.8c1.7-0.5,3.4-0.5,5-1.4
	c0.3-0.2,0.8-0.2,0.8-0.8c-1-0.3-1.5,0.9-2.4,0.7c-0.4-0.7,0.2-0.9,0.7-1.2c2.3-1.2,4.8-2,7.3-2.7c2.8-0.7,5.5-0.7,8.3-0.8
	c1.3,0,2.5-0.3,3.6-1.2c-0.4-0.9-1-1.1-1.8-0.7c-1.5,0.8-3,0.8-4.6,0.3c-0.8-0.3-1.6,0.3-2.2,0.7c-0.8,0.5-1.6,0.8-2.5,0.9
	c-1.9,0.2-3.7,0.3-5.6-0.2c-0.2-0.1-0.4-0.2-0.5-0.5c0.5-0.5,1.3-0.1,1.9-0.4c0.7-3.7-0.4-6.7-3.6-9.1c-0.2,0-0.2,0.3-0.2,0.6
	c0,0.6-0.2,1-0.6,1.5c-0.7,0.9-1.4,0.9-2.3,0.1C61.3,36.9,61,36,60.9,35c-0.1-0.8-0.2-1.7-0.5-2.5c-0.5-1.1-1-1.5-2.1-1
	c-1.9,0.9-3.7,0.3-5.5,0.1c-1.6-0.1-2.9,0.3-4.4,1.2c4.4-0.3,6.2,0.4,7.3,2c-0.4,0.5-0.7,0.4-1.1,0c-1.6-1.4-3.5-1.6-5.4-1.2
	c-3.3,0.7-6.5,0.8-9.8,0.7c-1.2,0-2.4-0.5-3.4-1c-0.8-0.5-1.7-0.7-2.6-0.8C33,32.6,33,32.9,33,33.1c1.9,0.1,2.5,0.5,3.2,2.6
	c0,0.4-0.5,0.3-0.7,0.6c0.2,0.5,0.2,1,0.2,1.5c0,0.5-0.1,1-0.1,1.5c2.7,0.8,5.4,1,8.2,0.2c0.7-0.2,1.5-0.4,2.2-0.6
	c2.8-1.2,5.6-0.8,8.4-0.4c1.8,0.3,3.5,1.1,4,3.2c0.3,1.2,0,2.1-1.1,2.9c-1.1,0.9-2.5,1.1-3.8,1.4c-1.9,0.4-3.9-0.1-5.8,0.4
	c-0.5,0.1-0.9,0.3-1.2,0.7c-1.1,1.1-2.5,1-4.1,1.3c0.8-1.4,2.3-0.9,3.2-1.7c-4.6-0.6-7.4-0.1-9.7,3.9c0.5,0.2,0.9-0.1,1.4-0.2
	c1.9-0.5,3.7,0.7,3.7,2.5c0,1-0.7,1.5-1.4,2c-0.8,0.5-1.7,0.7-2.6,1c-1.2,0.4-2.2,1-3.1,1.9c-1.6,1.7-3.2,3.3-5.3,4.4
	c-1.1,0.6-2.1,0.2-3.3,0.6c-0.6,0.2-1.3,0.4-1.9,0.4c-3.2,0.2-6.4-0.2-9.6-0.1c-1.3,0-2.6,0.3-4,0.3c-3.1-0.1-6.1,0.1-9.2-0.3
	c0,9.1,0,18.2,0,27.3c0,1.6,1.1,2.7,2.7,2.7c3.1,0,6.3,0,9.4,0c4.3,0,8.6,0,12.9,0c0.1,0,0.2,0,0.3,0c13.3,0,26.6,0,39.9,0
	c0.1,0,0.2,0,0.3,0c0-0.1,0-0.2,0-0.2c0,0.1,0,0.2,0,0.2c10.5,0,21,0,31.5,0c1.6,0,2.5-1.1,2.5-2.8C99.7,81.2,99.7,72.1,99.7,63.1z"
	/>
<g>
	<g>
		<path class="st12" d="M30.9,75.7c0,2.4-2,4.4-4.4,4.4h-8.8V65.6H26c2.4,0,4.4,2,4.4,4.4c0,1-0.4,1.9-0.9,2.6
			C30.4,73.3,30.9,74.4,30.9,75.7z M23,69.4v1.7H24c0.5,0,0.9-0.4,0.9-0.8c0-0.5-0.4-0.8-0.9-0.8H23z M25.3,75.7
			c0-0.5-0.4-0.9-0.9-0.9H23v1.8h1.4C24.8,76.6,25.3,76.2,25.3,75.7z"/>
		<path class="st12" d="M45.8,72.9c0,4.3-3.2,7.7-7.6,7.7c-4.4,0-7.6-3.4-7.6-7.7c0-4.4,3.4-7.6,7.6-7.6
			C42.4,65.2,45.8,68.5,45.8,72.9z M40.6,72.9c0-1.8-1.1-2.9-2.4-2.9c-1.4,0-2.4,1.1-2.4,2.9c0,1.6,1,2.9,2.4,2.9
			C39.5,75.8,40.6,74.5,40.6,72.9z"/>
		<path class="st12" d="M59.5,65.6v14.5h-5.2l-3-5.4v5.4h-5.2V65.7h0l0,0h5.3l3,5.3v-5.3H59.5z"/>
		<path class="st12" d="M66.8,69.5c-0.3,0-0.7,0.1-0.7,0.5v0.1c0.3,1.5,7.6,0.1,7.6,5c0,2.9-2.3,5.4-6.8,5.4c-6.6,0-7-5.3-7-5.3h5.9
			c0,0.5,0.5,0.9,1,0.9c0.4,0,0.9-0.1,0.9-0.6c0-0.1,0-0.1,0-0.2c-0.3-1.2-7.5,0.2-7.5-4.9c0-3.3,2.9-5.3,6.7-5.3
			c3.7,0,5.8,2.7,6.3,5.1h-5.3C67.7,69.9,67.3,69.5,66.8,69.5z"/>
		<path class="st12" d="M83.7,65.6l4.7,14.5H83l-0.4-1.4h-4.5l-0.4,1.4h-5.4l4.7-14.5H83.7z M79.5,74.3h1.8l-0.9-2.9L79.5,74.3z"/>
		<path class="st12" d="M93.8,65.6v14.5h-5.2V65.6H93.8z"/>
	</g>
	<g>
		<path class="st12" d="M11.4,81.1c1.7,0,3,1.4,3,3v6.1H4.5v-5.7c0-1.7,1.4-3,3-3c0.7,0,1.3,0.2,1.8,0.6
			C9.8,81.5,10.5,81.1,11.4,81.1z M7.1,86.6h1.2v-0.7c0-0.3-0.2-0.6-0.6-0.6c-0.3,0-0.6,0.3-0.6,0.6V86.6z M11.4,85
			c-0.3,0-0.6,0.3-0.6,0.6v0.9h1.3v-0.9C12.1,85.3,11.8,85,11.4,85z"/>
		<path class="st12" d="M4.5,76.8h9.9v3.6H4.5V76.8z"/>
		<path class="st12" d="M9.9,65.7c2.7,0.2,4.8,2.4,4.8,5.2c0,3-2.3,5.3-5.3,5.3c-3,0-5.3-2.3-5.3-5.3c0-2.7,1.9-4.9,4.6-5.2v3.6
			c-0.9,0.2-1.4,0.8-1.4,1.6c0,0.9,0.8,1.7,2,1.7c1.1,0,2-0.7,2-1.7c0-0.3-0.1-0.6-0.2-0.8L9.9,71V65.7z"/>
	</g>
	<g>
		<path class="st12" d="M25.7,86.6c-0.5,2.3-2.5,4-4.9,4c-2.5,0-4.1-1.9-3.7-4.4c0.4-2.5,2.5-4.4,5-4.4c2.3,0,3.8,1.6,3.8,3.8h-3
			c-0.1-0.7-0.5-1.1-1.2-1.1c-0.8,0-1.5,0.6-1.6,1.7c-0.1,0.9,0.4,1.6,1.2,1.6c0.2,0,0.5-0.1,0.7-0.2l-0.6-1.1H25.7z"/>
		<path class="st12" d="M40.8,82.1l1.5,8.2h-3.1l-0.1-0.8h-2.5l-0.4,0.8h-3.1l3.9-8.2H40.8z M37.7,87.1h1l-0.3-1.7L37.7,87.1z"/>
		<path class="st12" d="M56.4,82.1l0.5,4l1.7-4h3.9l-1.2,8.2h-3l0.4-3.1l-1.4,3.1h-2l-0.5-3.1l-0.4,3.1h-3l1.2-8.2H56.4z"/>
		<path class="st12" d="M78.8,82.1l-0.4,2.5h-4L74.3,85h2.6l-0.3,2.4H74l-0.1,0.4h4l-0.4,2.5h-7l1.2-8.2H78.8z"/>
		<path class="st12" d="M91.5,84.3c-0.2,0-0.4,0.1-0.5,0.3c0,0,0,0,0,0.1c0,0.9,4.3,0.1,3.9,2.8c-0.2,1.6-1.7,3.1-4.3,3.1
			c-3.7,0-3.6-3-3.6-3h3.4c0,0.3,0.2,0.5,0.5,0.5c0.2,0,0.5-0.1,0.6-0.3c0,0,0-0.1,0-0.1c-0.1-0.7-4.3,0.1-3.9-2.8
			c0.3-1.9,2.1-3,4.2-3c2.1,0,3.1,1.5,3.2,2.9h-3C92,84.6,91.8,84.3,91.5,84.3z"/>
	</g>
</g>
</svg>
