<?xml version="1.0" encoding="utf-8"?>
<!-- Generator: Adobe Illustrator 22.1.0, SVG Export Plug-In . SVG Version: 6.00 Build 0)  -->
<svg version="1.1" xmlns="http://www.w3.org/2000/svg" xmlns:xlink="http://www.w3.org/1999/xlink" x="0px" y="0px"
	 viewBox="0 0 100 100" style="enable-background:new 0 0 100 100;" xml:space="preserve">
<style type="text/css">
	.st0{fill-rule:evenodd;clip-rule:evenodd;fill:#141414;}
</style>
<g id="Ebene_2">
</g>
<g id="Ebene_1">
	<path class="st0" d="M98.1,42.2C94.2,18,73.5,0.1,49.1,0c-16-0.1-31.9,0-47.9,0C0.8,0,0,0,0,0s0,66.6,0,100c0.6,0,1.1,0,1.5,0
		c15.5,0,31,0,46.5,0c2.5,0,5.1-0.2,7.6-0.5C83.3,95.7,102.5,69.7,98.1,42.2z M34.9,64.4c7,6.8,19.2,8.1,27.9-0.1
		c3,3.1,6.1,6.2,9.2,9.3c-5.8,6.5-18,11.8-31.1,8.7C27.1,79,16.7,67,15.5,53.3c-1.2-14.8,6.7-28.2,20-33.9c12.9-5.5,27.5-2.2,36.5,7
		c-3.1,3.1-6.1,6.2-9.3,9.4c-5.2-4.8-11.4-6.7-18.5-5.2c-4.9,1-8.8,3.7-11.8,7.7C26.6,46.3,27.6,57.4,34.9,64.4z"/>
</g>
</svg>
