<?xml version="1.0" encoding="utf-8"?>
<!-- Generator: Adobe Illustrator 22.1.0, SVG Export Plug-In . SVG Version: 6.00 Build 0)  -->
<svg version="1.1" id="Layer_1" xmlns="http://www.w3.org/2000/svg" xmlns:xlink="http://www.w3.org/1999/xlink" x="0px" y="0px"
	 viewBox="0 0 100 100" style="enable-background:new 0 0 100 100;" xml:space="preserve">
<style type="text/css">
	.st0{fill:#E02D2D;}
	.st1{fill:#214E7C;}
</style>
<path class="st0" d="M87.5,70.5C87.5,58,75,70.5,75,58s-12.5,0-12.5-12.5s-12.5,0-12.5-12.5c0,12.5-12.5,0-12.5,12.5
	s-12.5,0-12.5,12.5s-12.5,0-12.5,12.5S0.1,83,0.1,83v12.5v4.7h37.5V89.5c0,0,0-12.5,12.5-12.5s12.5,12.5,12.5,12.5v10.6H100v-4.7V83
	C100,83,87.5,83,87.5,70.5z"/>
<polygon class="st1" points="100,62.4 49.9,12.6 0,62.7 0,0 100,0 "/>
</svg>
