<?xml version="1.0" encoding="utf-8"?>
<!-- Generator: Adobe Illustrator 22.1.0, SVG Export Plug-In . SVG Version: 6.00 Build 0)  -->
<svg version="1.1" id="Layer_1" xmlns="http://www.w3.org/2000/svg" xmlns:xlink="http://www.w3.org/1999/xlink" x="0px" y="0px"
	 viewBox="0 0 100 100" style="enable-background:new 0 0 100 100;" xml:space="preserve">
<style type="text/css">
	.st0{fill:#3D3D3F;}
	.st1{fill:#00ABB7;}
	.st2{fill:#C2CF00;}
	.st3{fill:#F4A019;}
	.st4{fill:#E43D16;}
	.st5{fill:url(#SVGID_1_);}
	.st6{fill:url(#SVGID_2_);}
	.st7{fill:url(#SVGID_3_);}
	.st8{fill:url(#SVGID_4_);}
	.st9{fill:url(#SVGID_5_);}
</style>
<g>
	<path class="st0" d="M55.9,100c-8.2-5.5-15.7-9.9-22.4-13.2c-18.9-9.2-25-6.1-25-6l-0.9-1.5c0.3-0.2,6.4-3.8,25.9,5.5l16.2-34.9
		l0,0c0.2-0.5,0.2-1,0-1.5c-0.8-2-4.5-3.7-5.9-4.2l0,0c-6.6-2.8-10.3-6.9-10.9-12C30.9,18,52.9,0.8,53.8,0l1.1,1.4
		C54.6,1.6,32.8,18.8,34.4,32c0.6,4.5,3.9,8.1,9.9,10.6c0.7,0.2,5.6,2.2,6.9,5.2c0.1,0.1,0.1,0.3,0.1,0.4c0.1-0.1,0.3-0.1,0.4-0.1
		c3.1-1,7.8,1.5,8.4,1.9c5.8,2.9,10.7,3.1,14.5,0.6c11.1-7.3,10.1-35.1,10.1-35.3l1.7-0.1c0.1,1.2,1.1,29.1-10.9,36.9
		c-4.3,2.8-9.8,2.6-16.2-0.5l0,0c-1.3-0.7-5-2.4-7-1.8c-0.5,0.2-0.9,0.5-1.1,1L35,85.6c6.5,3.2,13.9,7.6,21.9,12.9L55.9,100z"/>
</g>
<path class="st1" d="M73.7,23.1c-5.2-2.9-10.5-4.4-15-4.2c-8.5,0.3-14.6-1.5-16.5-2.3c-1.4,1.9-2.5,3.7-3.3,5.2
	c1,0.4,7.4,2.8,16.5,2.4c4.8-0.2,10.5,1.4,15.9,4.4c4.2,2.3,7.7,5.3,9.5,8c0.6-2.2,1-4.6,1.4-6.8C80.3,27.6,77.2,25.1,73.7,23.1z"/>
<path class="st2" d="M80.2,38.5c-1.5-2.6-5.5-6.1-9.7-8.5c-5.2-2.9-10.5-4.4-15-4.2c-9.8,0.4-16.3-2.2-17.3-2.5
	c-1.1,2.6-1.5,4.5-1.5,5.8c2.1,0.7,7.8,2.3,15.5,2C57,31,62.6,32.6,68,35.6c4.4,2.5,8.1,5.7,9.8,8.4C78.8,42.4,79.5,40.6,80.2,38.5z
	"/>
<path class="st3" d="M52.2,32.8c-7.4,0.3-12.9-1.1-15.5-1.9c0,0.1,0,0.2,0,0.2c0.2,2,1,3.9,2.5,5.6c2.7,0.5,6.1,0.8,10,0.7
	c4.8-0.2,10.5,1.4,15.9,4.4c3.5,1.9,6.5,4.3,8.4,6.6c0.1,0,0.1-0.1,0.2-0.1c1.2-0.6,2.2-1.6,3.1-2.7c-1.4-2.6-5.3-6.1-9.6-8.5
	C62.1,34.1,56.8,32.6,52.2,32.8z"/>
<path class="st4" d="M64.4,43.1c-5.2-2.9-10.5-4.4-15-4.2c-3,0.1-5.7,0-8.1-0.3c1.3,1,2.8,1.9,4.7,2.7c0,0,5.7,2.4,6.1,5.1
	C55,45,60,47.7,60,47.7c5.1,2.5,9.1,2.7,12.2,1.3C70.4,47,67.6,44.8,64.4,43.1z"/>
<linearGradient id="SVGID_1_" gradientUnits="userSpaceOnUse" x1="134.101" y1="12.9273" x2="178.1557" y2="12.9273" gradientTransform="matrix(0.9805 0.1963 -0.1963 0.9805 -89.986 -17.6566)">
	<stop  offset="0" style="stop-color:#00ABB7"/>
	<stop  offset="1" style="stop-color:#68C4DD"/>
</linearGradient>
<path class="st5" d="M73.7,23.1c-5.2-2.9-10.5-4.4-15-4.2c-8.5,0.3-14.6-1.5-16.5-2.3c-1.4,1.9-2.5,3.7-3.3,5.2
	c1,0.4,7.4,2.8,16.5,2.4c4.8-0.2,10.5,1.4,15.9,4.4c4.2,2.3,7.7,5.3,9.5,8c0.6-2.2,1-4.6,1.4-6.8C80.3,27.6,77.2,25.1,73.7,23.1z"/>
<linearGradient id="SVGID_2_" gradientUnits="userSpaceOnUse" x1="133.2124" y1="20.5419" x2="177.8954" y2="20.5419" gradientTransform="matrix(0.9805 0.1963 -0.1963 0.9805 -89.986 -17.6566)">
	<stop  offset="0" style="stop-color:#C2CF00"/>
	<stop  offset="1" style="stop-color:#DCDF6D"/>
</linearGradient>
<path class="st6" d="M80.2,38.5c-1.5-2.6-5.5-6.1-9.7-8.5c-5.2-2.9-10.5-4.4-15-4.2c-9.8,0.4-16.3-2.2-17.3-2.5
	c-1.1,2.6-1.5,4.5-1.5,5.8c2.1,0.7,7.8,2.3,15.5,2C57,31,62.6,32.6,68,35.6c4.4,2.5,8.1,5.7,9.8,8.4C78.8,42.4,79.5,40.6,80.2,38.5z
	"/>
<linearGradient id="SVGID_3_" gradientUnits="userSpaceOnUse" x1="133.7918" y1="26.7397" x2="175.9858" y2="26.7397" gradientTransform="matrix(0.9805 0.1963 -0.1963 0.9805 -89.986 -17.6566)">
	<stop  offset="0" style="stop-color:#F4A019"/>
	<stop  offset="1" style="stop-color:#FDCC00"/>
</linearGradient>
<path class="st7" d="M52.2,32.8c-7.4,0.3-12.9-1.1-15.5-1.9c0,0.1,0,0.2,0,0.2c0.2,2,1,3.9,2.5,5.6c2.7,0.5,6.1,0.8,10,0.7
	c4.8-0.2,10.5,1.4,15.9,4.4c3.5,1.9,6.5,4.3,8.4,6.6c0.1,0,0.1-0.1,0.2-0.1c1.2-0.6,2.2-1.6,3.1-2.7c-1.4-2.6-5.3-6.1-9.6-8.5
	C62.1,34.1,56.8,32.6,52.2,32.8z"/>
<linearGradient id="SVGID_4_" gradientUnits="userSpaceOnUse" x1="139.8272" y1="31.4594" x2="172.1387" y2="31.4594" gradientTransform="matrix(0.9805 0.1963 -0.1963 0.9805 -89.986 -17.6566)">
	<stop  offset="0" style="stop-color:#E1001A"/>
	<stop  offset="1" style="stop-color:#E65F37"/>
</linearGradient>
<path class="st8" d="M64.4,43.1c-5.2-2.9-10.5-4.4-15-4.2c-3,0.1-5.7,0-8.1-0.3c1.3,1,2.8,1.9,4.7,2.7c0,0,5.7,2.4,6.1,5.1
	C55,45,60,47.7,60,47.7c5.1,2.5,9.1,2.7,12.2,1.3C70.4,47,67.6,44.8,64.4,43.1z"/>
<linearGradient id="SVGID_5_" gradientUnits="userSpaceOnUse" x1="137.0298" y1="4.2797" x2="177.9118" y2="4.2797" gradientTransform="matrix(0.9805 0.1963 -0.1963 0.9805 -89.986 -17.6566)">
	<stop  offset="0" style="stop-color:#2B3488"/>
	<stop  offset="1" style="stop-color:#4D599F"/>
</linearGradient>
<path class="st9" d="M75.8,14.6c-5.9-0.2-9.5-2.7-14-2.5c-6.5,0.2-11.5-0.8-14.4-1.6c-1.7,1.7-3.1,3.3-4.3,4.9
	c2.2,0.7,7.8,2.3,15.4,2c4.8-0.2,10.5,1.4,15.9,4.4c3.2,1.8,6,3.9,7.9,6c0.3-2.7,0.8-10.5,0.9-12.5C81.6,13.8,78.5,14.7,75.8,14.6z"
	/>
</svg>
