<?xml version="1.0" encoding="utf-8"?>
<!-- Generator: Adobe Illustrator 22.1.0, SVG Export Plug-In . SVG Version: 6.00 Build 0)  -->
<svg version="1.1" id="Layer_1" xmlns="http://www.w3.org/2000/svg" xmlns:xlink="http://www.w3.org/1999/xlink" x="0px" y="0px"
	 viewBox="0 0 100 100" style="enable-background:new 0 0 100 100;" xml:space="preserve">
<style type="text/css">
	.st0{fill:#2A292C;}
</style>
<g>
	<g>
		<polygon class="st0" points="8.5,77.8 6.7,76.2 27.5,51.9 38,51.9 38,54.2 28.6,54.2 		"/>
	</g>
	<g>
		<polygon class="st0" points="38,46.8 27.5,46.8 6.7,22.5 8.5,20.9 28.6,44.5 38,44.5 		"/>
	</g>
	<g>
		<path class="st0" d="M5.5,24.9c-3,0-5.4-2.4-5.4-5.4c0-3,2.4-5.4,5.4-5.4c3,0,5.4,2.4,5.4,5.4C10.8,22.5,8.4,24.9,5.5,24.9z
			 M5.5,16.6c-1.7,0-3,1.4-3,3c0,1.7,1.4,3,3,3c1.7,0,3-1.4,3-3C8.5,17.9,7.1,16.6,5.5,16.6z"/>
	</g>
	<g>
		<path class="st0" d="M5.5,85c-3,0-5.4-2.4-5.4-5.4c0-3,2.4-5.4,5.4-5.4c3,0,5.4,2.4,5.4,5.4C10.8,82.6,8.4,85,5.5,85z M5.5,76.7
			c-1.7,0-3,1.4-3,3c0,1.7,1.4,3,3,3c1.7,0,3-1.4,3-3C8.5,78,7.1,76.7,5.5,76.7z"/>
	</g>
	<g>
		<rect x="36.8" y="36.7" class="st0" width="2.4" height="26.4"/>
	</g>
</g>
<g>
	<g>
		<polygon class="st0" points="22.3,8.4 23.8,6.6 48.2,27.5 48.2,37.9 45.8,37.9 45.8,28.6 		"/>
	</g>
	<g>
		<polygon class="st0" points="53.2,37.9 53.2,27.5 77.6,6.6 79.1,8.4 55.6,28.6 55.6,37.9 		"/>
	</g>
	<g>
		<path class="st0" d="M75.1,5.4c0-3,2.4-5.4,5.4-5.4c3,0,5.4,2.4,5.4,5.4c0,3-2.4,5.4-5.4,5.4C77.5,10.8,75.1,8.4,75.1,5.4z
			 M83.5,5.4c0-1.7-1.4-3-3-3c-1.7,0-3,1.4-3,3c0,1.7,1.4,3,3,3C82.1,8.4,83.5,7.1,83.5,5.4z"/>
	</g>
	<g>
		<path class="st0" d="M15,5.4c0-3,2.4-5.4,5.4-5.4c3,0,5.4,2.4,5.4,5.4c0,3-2.4,5.4-5.4,5.4C17.4,10.8,15,8.4,15,5.4z M23.4,5.4
			c0-1.7-1.4-3-3-3c-1.7,0-3,1.4-3,3c0,1.7,1.4,3,3,3C22,8.4,23.4,7.1,23.4,5.4z"/>
	</g>
	<g>
		<rect x="36.9" y="36.7" class="st0" width="26.4" height="2.4"/>
	</g>
</g>
<g>
	<g>
		<polygon class="st0" points="91.6,22.3 93.4,23.8 72.6,48.2 62.1,48.2 62.1,45.8 71.5,45.8 		"/>
	</g>
	<g>
		<polygon class="st0" points="62.1,53.2 72.6,53.2 93.4,77.6 91.6,79.1 71.5,55.6 62.1,55.6 		"/>
	</g>
	<g>
		<path class="st0" d="M94.6,75.1c3,0,5.4,2.4,5.4,5.4c0,3-2.4,5.4-5.4,5.4c-3,0-5.4-2.4-5.4-5.4C89.3,77.5,91.7,75.1,94.6,75.1z
			 M94.6,83.5c1.7,0,3-1.4,3-3c0-1.7-1.4-3-3-3c-1.7,0-3,1.4-3,3C91.6,82.1,93,83.5,94.6,83.5z"/>
	</g>
	<g>
		<path class="st0" d="M94.6,15c3,0,5.4,2.4,5.4,5.4c0,3-2.4,5.4-5.4,5.4c-3,0-5.4-2.4-5.4-5.4C89.3,17.4,91.7,15,94.6,15z
			 M94.6,23.4c1.7,0,3-1.4,3-3c0-1.7-1.4-3-3-3c-1.7,0-3,1.4-3,3C91.6,22,93,23.4,94.6,23.4z"/>
	</g>
	<g>
		<rect x="60.9" y="36.9" class="st0" width="2.4" height="26.4"/>
	</g>
</g>
<g>
	<g>
		<polygon class="st0" points="77.8,91.6 76.3,93.4 51.9,72.6 51.9,62.1 54.3,62.1 54.3,71.5 		"/>
	</g>
	<g>
		<polygon class="st0" points="46.9,62.1 46.9,72.6 22.5,93.4 21,91.6 44.5,71.5 44.5,62.1 		"/>
	</g>
	<g>
		<path class="st0" d="M25,94.6c0,3-2.4,5.4-5.4,5.4c-3,0-5.4-2.4-5.4-5.4c0-3,2.4-5.4,5.4-5.4C22.6,89.3,25,91.7,25,94.6z
			 M16.6,94.6c0,1.7,1.4,3,3,3c1.7,0,3-1.4,3-3c0-1.7-1.4-3-3-3C18,91.6,16.6,93,16.6,94.6z"/>
	</g>
	<g>
		<path class="st0" d="M85.1,94.6c0,3-2.4,5.4-5.4,5.4c-3,0-5.4-2.4-5.4-5.4c0-3,2.4-5.4,5.4-5.4C82.7,89.3,85.1,91.7,85.1,94.6z
			 M76.7,94.6c0,1.7,1.4,3,3,3c1.7,0,3-1.4,3-3c0-1.7-1.4-3-3-3C78.1,91.6,76.7,93,76.7,94.6z"/>
	</g>
	<g>
		<rect x="36.8" y="60.9" class="st0" width="26.4" height="2.4"/>
	</g>
</g>
</svg>
