<?xml version="1.0" encoding="utf-8"?>
<!-- Generator: Adobe Illustrator 22.1.0, SVG Export Plug-In . SVG Version: 6.00 Build 0)  -->
<svg version="1.1" id="Layer_1" xmlns="http://www.w3.org/2000/svg" xmlns:xlink="http://www.w3.org/1999/xlink" x="0px" y="0px"
	 viewBox="0 0 100 100" style="enable-background:new 0 0 100 100;" xml:space="preserve">
<path d="M0.2,33.4c0-5.8,0-11,0-16.2c0-1.7-0.5-3.7,2-3.8c2.4-0.1,2.9,1.8,3,3.8C5.6,27.3,6,37.4,6.5,47.5c0.1,1.6,0.2,4.4,0.7,4.4
	c1.8,0.3,2.2-1.9,3.1-3c2.3-2.7,4.3-5.6,6.7-8.2c1.3-1.4,3.5-2.2,5.1-0.5c1.6,1.6-0.3,2.9-1.2,4.1c-2.9,3.7-5.7,7.4-8.8,11
	c-1.5,1.8-1.5,2.9,0.2,4.7c7.2,7.5,14.7,14.7,20.5,23.3c0.8,1.2,2.8,2.5,1.3,4.1c-1.7,1.8-3.5,0.2-4.7-1c-5.3-5-8.4-11.8-14-16.6
	c-2.5-2.2-4.2-5.3-7.2-7c-1,3.4,0.9,6.7,0.7,10c-0.1,1.8,2,4.8-1.5,5.1c-3,0.3-4.4-2-4.6-4.9C1.9,59.7,1,46.3,0.2,33.4z"/>
<path d="M44.5,40.5c-1.5,0-2.7,0.2-3.9,0c-1.9-0.3-5.1,0.7-5.1-1.8c0-1.9,3.4-1.3,5.2-1.4c10.8-0.7,10.8-0.6,10.8-11.3
	c0-4.2,0-8.3,0-12.5c0-0.9-0.7-2.4,0.9-2.6c1.5-0.2,2.2,1.1,2.6,2.4c1.6,6.2,1.5,12.5,1.7,18.8c0.1,3.3,1,3.8,4.1,3.5
	c9.2-0.9,18.5-1.4,27.8-2.1c1.3-0.1,3.2-0.3,3.3,1.5c0.1,1.6-1.7,2-3.1,2.2c-9.6,0.9-19.1,1.7-28.7,2.5c-2.2,0.2-2.9,0.9-2.8,3.1
	c1,11.2,1.9,22.3,2.8,33.5c0.1,1.5,0.2,3,0.1,4.5c-0.2,1.8,0.3,4.2-2.8,3.9c-2.9-0.3-3.4-1.9-3.4-4.6c-0.1-6.1-0.2-12.2-1.2-18.2
	c-1-5.8-1-11.5-0.8-17.2C52.4,37.1,48.2,40.8,44.5,40.5z"/>
<path d="M32.2,66.2c1.3,0,2.2-0.1,3.2-0.3c1.6-0.3,3.4-0.8,3.9-2.4c0.4-1.6-1.4-2.3-2.5-2.9c-3.3-2-6-4.5-7.3-8.2
	c-1-2.7-0.6-5,2.5-5.8c3.7-1,7.4-0.8,10.9,1c1.3,0.7,2.8,1.8,1.8,3.5c-0.9,1.5-2.7,1.1-3.7,0.4c-2.8-2-5.6-0.8-6.7,1.1
	c-1.5,2.4,1.7,3.3,3.3,4.5c2.4,1.7,4.6,3.5,6.2,5.9c2.4,3.5,2,6.2-2.2,7.8c-3.7,1.4-7.4,1-10.9-0.4c-1.5-0.6-2.8-2.1-2.3-3.8
	C29.1,64.1,30.8,66.1,32.2,66.2z"/>
<path d="M87.7,58.1c0,2.8,0,5.5,0,8.3c0,1.5,0.4,3.2-1.7,3.5c-2,0.3-3.5-1-3.8-2.7c-1.4-7.3,0.1-14.7,0-22c0-1.1,1.4-1.1,2.3-1.1
	c2,0,2.9,1.4,3,3.1C87.7,50.8,87.6,54.4,87.7,58.1C87.6,58.1,87.6,58.1,87.7,58.1z"/>
<path d="M64.2,54.4c0-1.7,0.1-3.4,0-5.1c-0.1-1.9,0.3-3.2,2.5-3.2c2,0,2.9,1.2,3,3c0.4,6.1,0.7,12.1,1.1,18.2
	c0.1,1.3-0.6,2.2-1.7,2.3c-2,0.2-3.2-1.1-3.8-2.8C64.1,62.7,64.2,58.5,64.2,54.4z"/>
<path d="M78.6,55.6c0.3,4.2,0.5,6.7,0.6,9.1c0,1.4-0.1,3-2,3.2c-1.7,0.2-3.1-0.7-3.2-2.4c-0.4-6.1-0.5-12.2-0.7-18.2
	c0-1,0.6-1.6,1.6-1.5c1.9,0.1,3.5,1,3.6,3C78.7,51.7,78.6,54.6,78.6,55.6z"/>
<path d="M96.8,68.2c-1.7-0.4-3.4-1.1-3.3-3.1c0.1-1.7,1.8-2.7,3.4-2.8c2.1,0,3.1,1.5,3.1,3.4C100,67.5,98.5,68,96.8,68.2z"/>
</svg>
