<?xml version="1.0" encoding="utf-8"?>
<!-- Generator: Adobe Illustrator 22.1.0, SVG Export Plug-In . SVG Version: 6.00 Build 0)  -->
<svg version="1.1" id="Layer_1" xmlns="http://www.w3.org/2000/svg" xmlns:xlink="http://www.w3.org/1999/xlink" x="0px" y="0px"
	 viewBox="0 0 100 100" style="enable-background:new 0 0 100 100;" xml:space="preserve">
<style type="text/css">
	.st0{fill:#FFFFFF;}
</style>
<g>
	<path d="M48.5,0.1c28,0,50.7,22.3,50.8,50.1C99.5,78.2,78.5,99.8,51,100C23.3,100.1,0.3,77.5,0.4,50.1C0.5,21.7,21.3,0.1,48.5,0.1z
		"/>
	<path class="st0" d="M80,48.9c2.3,0,4.4,0,6.5,0c2.3,14.9-11.4,31.7-27.4,34.2C41.5,86,20.8,74.5,19.6,49.1c0,0,0-0.1,0-0.1l-6.8,0
		c0,0,0,0,0-0.2c-0.3-15.3,13.6-30.2,29.1-32C58.2,14.8,78.1,25.1,80,48.9z M32.5,49.6c0,9.6,7.7,17.2,17.3,17.2
		c9.3-0.1,17-7.7,17.1-17.1c0.1-9.5-7.6-17.3-17.2-17.3C40,32.4,32.5,39.9,32.5,49.6z"/>
	<path d="M32.5,49.6c0-9.7,7.5-17.2,17.2-17.2c9.6,0,17.3,7.8,17.2,17.3c-0.1,9.4-7.8,17-17.1,17.1C40.1,66.8,32.5,59.2,32.5,49.6z
		 M56.5,49.7c0-3.9-2.9-6.8-6.8-6.9c-3.9-0.1-6.9,2.8-7,6.7c-0.1,3.8,3,6.9,6.8,6.9C53.3,56.5,56.4,53.4,56.5,49.7z"/>
	<path class="st0" d="M56.5,49.7c0,3.7-3.2,6.8-6.9,6.8c-3.8-0.1-6.8-3.2-6.8-6.9c0.1-3.8,3.1-6.7,7-6.7
		C53.6,42.9,56.5,45.8,56.5,49.7z"/>
</g>
</svg>
