<?xml version="1.0" encoding="utf-8"?>
<!-- Generator: Adobe Illustrator 22.1.0, SVG Export Plug-In . SVG Version: 6.00 Build 0)  -->
<svg version="1.1" xmlns="http://www.w3.org/2000/svg" xmlns:xlink="http://www.w3.org/1999/xlink" x="0px" y="0px"
	 viewBox="0 0 100 100" style="enable-background:new 0 0 100 100;" xml:space="preserve">
<g id="Ebene_2">
</g>
<g id="Ebene_1">
	<g>
		<path d="M49.9,32.4c-9.7,0-17.2,7.5-17.2,17.2c0,9.6,7.7,17.3,17.3,17.2c9.3-0.1,17-7.7,17.1-17.1C67.2,40.1,59.5,32.4,49.9,32.4z
			 M49.7,56.4c-3.8-0.1-6.8-3.2-6.8-7c0.1-3.9,3.1-6.7,7-6.7c3.9,0.1,6.8,3,6.8,6.9C56.6,53.4,53.5,56.4,49.7,56.4z"/>
		<path d="M48.7,0C21.4,0,0.6,21.7,0.6,50.1C0.5,77.5,23.5,100.1,51.2,100c27.5-0.1,48.5-21.8,48.4-49.9C99.5,22.3,76.8,0,48.7,0z
			 M59.3,83.2C41.7,86,21,74.5,19.8,49c0,0,0-0.1,0-0.1l-6.8,0c0,0,0,0,0-0.2c-0.3-15.3,13.6-30.2,29.1-32
			c16.4-1.9,36.3,8.4,38.2,32.3c2.3,0,4.4,0,6.5,0C89,63.8,75.4,80.6,59.3,83.2z"/>
	</g>
</g>
</svg>
