<?xml version="1.0" encoding="utf-8"?>
<!-- Generator: Adobe Illustrator 22.1.0, SVG Export Plug-In . SVG Version: 6.00 Build 0)  -->
<svg version="1.1" id="Layer_1" xmlns="http://www.w3.org/2000/svg" xmlns:xlink="http://www.w3.org/1999/xlink" x="0px" y="0px"
	 viewBox="0 0 100 100" style="enable-background:new 0 0 100 100;" xml:space="preserve">
<style type="text/css">
	.st0{fill:#603C14;}
</style>
<path d="M4.8,39.6v9.8H0V27.7l9,9.9l9-9.9v21.7h-4.8v-9.8L9,44.9L4.8,39.6z"/>
<path d="M44.5,28.2h4.8v7.9l5.2-7.9h5.6l-5.5,8.4l7.1,12.8h-5.4l-4.6-8.3l-2.5,3.5v4.8h-4.8V28.2z"/>
<path d="M64.3,28.2h4.8v7.9l5.2-7.9h5.6l-5.5,8.4l7.1,12.8h-5.4l-4.6-8.3l-2.5,3.5v4.8h-4.8V28.2z"/>
<path d="M93.4,46.3h-6.3l-1.3,3.1h-5.3l9.8-21.7l9.8,21.7h-5.3L93.4,46.3z M91.7,42.4L90.2,39l-1.4,3.3H91.7z"/>
<g>
	<path d="M27.3,59.9c-1.2-0.9-2.4-1.2-3.9-1.2c-3.6,0-5.2,2.9-5.2,6.5c0,3.6,1.5,6.5,5.2,6.5c1.3,0,3.2-0.3,4.7-1.8l0.5,0.9
		c-1.4,1.4-3.1,2-5.2,2c-4.3,0-6.4-3.4-6.4-7.7c0-4.2,2.1-7.7,6.4-7.7c1.7,0,3.3,0.6,4.6,1.6L27.3,59.9z"/>
	<path d="M42.1,57.3l6.3,15.4h-1.2l-1.5-3.6h-7.2L37,72.7h-1.2L42.1,57.3z M39,68h6.3l-3.1-7.7L39,68z"/>
	<path d="M56.5,57.7h8.8v1.2h-7.7v6h5.9V66h-5.9v6.7h-1.1V57.7z"/>
	<path d="M82.2,71.5v1.2h-8.8v-15h8.8v1.2h-7.7v6h5.9V66h-5.9v5.5H82.2z"/>
</g>
<circle cx="90.7" cy="64.5" r="1.7"/>
<circle cx="8.4" cy="64.5" r="1.7"/>
<g>
	<polygon points="77.4,56.6 76.9,55.8 79.7,53.9 80.3,54.6 	"/>
</g>
<g>
	<path class="st0" d="M41,34.5c-0.5-1.2-1.3-2.2-2.2-3.1L25,47.4c3,2.3,7.2,2.9,10.9,1.2C41.2,46.1,43.5,39.8,41,34.5z"/>
	<path class="st0" d="M37.9,30.6c-3-2.3-7.2-2.9-10.9-1.2c-5.3,2.5-7.6,8.8-5.1,14.1c0.5,1.2,1.3,2.2,2.2,3.1L37.9,30.6z"/>
</g>
</svg>
