<?xml version="1.0" encoding="utf-8"?>
<!-- Generator: Adobe Illustrator 22.1.0, SVG Export Plug-In . SVG Version: 6.00 Build 0)  -->
<svg version="1.1" xmlns="http://www.w3.org/2000/svg" xmlns:xlink="http://www.w3.org/1999/xlink" x="0px" y="0px"
	 viewBox="0 0 100 100" style="enable-background:new 0 0 100 100;" xml:space="preserve">
<style type="text/css">
	.st0{fill:#292828;}
</style>
<g id="Ebene_2">
</g>
<g id="Ebene_1">
	<polygon class="st0" points="90.3,71.5 90.3,71.5 90.3,74.3 90.3,74.3 90.3,74.3 90.5,74.3 100,74.3 100,88.4 89.8,88.4 88.6,88.4 
		88.6,88.4 65.2,88.4 65.2,59.3 78,52.1 78,38.5 54.9,53.2 55,67.5 50.1,73.4 45.2,67.5 45.2,53.2 22.1,38.5 22.2,52.1 35,59.3 
		35,88.4 11.5,88.4 11.5,88.4 10.3,88.4 0.2,88.4 0.2,74.3 9.6,74.3 9.8,74.3 9.8,74.3 9.9,74.3 9.9,71.5 9.9,71.5 9.9,25.6 
		9.9,25.6 9.9,26.3 9.1,26.3 0.2,26.3 0.2,12.2 9.8,12.2 9.8,12.2 19.8,12.2 50.1,31.5 80.3,12.2 90.3,12.2 90.3,12.2 100,12.2 
		100,26.3 91.1,26.3 90.3,26.3 	"/>
</g>
</svg>
