<?xml version="1.0" encoding="utf-8"?>
<!-- Generator: Adobe Illustrator 22.1.0, SVG Export Plug-In . SVG Version: 6.00 Build 0)  -->
<svg version="1.1" xmlns="http://www.w3.org/2000/svg" xmlns:xlink="http://www.w3.org/1999/xlink" x="0px" y="0px"
	 viewBox="0 0 100 100" style="enable-background:new 0 0 100 100;" xml:space="preserve">
<style type="text/css">
	.st0{fill:#E85274;}
	.st1{fill:#E53D50;}
	.st2{fill:#E64135;}
	.st3{fill:#D40D26;}
</style>
<g id="Ebene_2">
</g>
<g id="Ebene_1">
	<circle class="st0" cx="59.4" cy="59.3" r="10.8"/>
	<g>
		<path class="st1" d="M59.4,84.2c-13.7,0-24.9-11.2-24.9-24.9s11.2-24.9,24.9-24.9V40c-10.6,0-19.3,8.7-19.3,19.3
			s8.7,19.3,19.3,19.3S78.7,70,78.7,59.3h5.6C84.2,73,73.1,84.2,59.4,84.2z"/>
	</g>
	<g>
		<path class="st2" d="M59.4,100C37,100,18.7,81.7,18.7,59.3S37,18.6,59.4,18.6v8.2c-17.9,0-32.5,14.6-32.5,32.5
			s14.6,32.5,32.5,32.5V100z"/>
	</g>
	<g>
		<path class="st3" d="M12.5,59.3H0.2c0-32.6,26.5-59.2,59.2-59.2v12.3C33.6,12.5,12.5,33.5,12.5,59.3z"/>
	</g>
</g>
</svg>
