<?xml version="1.0" encoding="utf-8"?>
<!-- Generator: Adobe Illustrator 22.1.0, SVG Export Plug-In . SVG Version: 6.00 Build 0)  -->
<svg version="1.1" xmlns="http://www.w3.org/2000/svg" xmlns:xlink="http://www.w3.org/1999/xlink" x="0px" y="0px"
	 viewBox="0 0 100 100" style="enable-background:new 0 0 100 100;" xml:space="preserve">
<style type="text/css">
	.st0{fill:#E64368;}
	.st1{fill:#231F20;}
</style>
<g id="Ebene_2">
</g>
<g id="Ebene_1">
	<path class="st0" d="M74.4,42.7H25.3c-3.4,0-6.3,2.8-6.3,6.3v30c0,3.4,2.8,6.3,6.3,6.3h49.1c3.4,0,6.3-2.8,6.3-6.3v-30
		C80.6,45.5,77.8,42.7,74.4,42.7z M50,74.6c-0.3,0-0.6,0-0.9,0c-8.2,4.5-16,3.2-16,3.2c4.8-1.5,5.9-4.3,6.2-5.4
		c-5.1-2.3-8.5-6.2-8.5-10.6C30.7,54.8,39.4,49,50,49c10.6,0,19.3,5.7,19.3,12.8C69.3,68.9,60.6,74.6,50,74.6z"/>
	<g>
		<path class="st1" d="M87.4,100H12.2c-5.3,0-9.5-4.3-9.5-9.5V36.7c0-5.3,4.3-9.5,9.5-9.5h75.2c5.3,0,9.5,4.3,9.5,9.5v53.8
			C97,95.7,92.7,100,87.4,100z M12.2,33.7c-1.7,0-3,1.3-3,3v53.8c0,1.7,1.3,3,3,3h75.2c1.7,0,3-1.3,3-3V36.7c0-1.7-1.3-3-3-3H12.2z"
			/>
	</g>
	<g>
		<path class="st1" d="M79.1,28.8l-4.9-16.9c1.1-0.9,1.8-2.2,1.8-3.7c0-2.6-2.1-4.7-4.7-4.7s-4.7,2.1-4.7,4.7c0,2.6,2.1,4.7,4.7,4.7
			c0.2,0,0.4,0,0.6,0L77,28.2L79.1,28.8z"/>
		<path class="st1" d="M90.4,5.2C90.4,2.4,88,0,85.2,0c-2.9,0-5.2,2.3-5.2,5.2c0,1.9,1,3.6,2.6,4.5l-3.5,19l2-0.9l4.1-17.4
			C88,10.5,90.4,8.1,90.4,5.2z"/>
	</g>
</g>
</svg>
