<?xml version="1.0" encoding="utf-8"?>
<!-- Generator: Adobe Illustrator 22.1.0, SVG Export Plug-In . SVG Version: 6.00 Build 0)  -->
<svg version="1.1" xmlns="http://www.w3.org/2000/svg" xmlns:xlink="http://www.w3.org/1999/xlink" x="0px" y="0px"
	 viewBox="0 0 100 100" style="enable-background:new 0 0 100 100;" xml:space="preserve">
<g id="Ebene_2">
</g>
<g id="Ebene_1">
	<path d="M54.2,18c0,1,0,1.8,0,2.6c4.7,1.9,8.8,4.5,11.4,9c1.8,3.2,2.6,6.9,2.1,10.3c-1-0.6-2-1.2-3-1.8c-2.1-1.2-4.2-2.5-6.4-3.6
		c-1.4-0.7-2.2-1.8-2.8-3.2c-1.1-2.6-2.3-5.1-3.5-7.7c-0.8,0.1-1.6,0.2-2.5,0.3c-1.8,5-4.8,9.3-10,11.8c-2.6,1.3-6.5,2-9,1.6
		c0.1-0.4,0.2-0.9,0.4-1.2c1.8-3.1,3.6-6.2,5.4-9.3c0.4-0.6,0.9-1,1.5-1.3c2.3-1.1,4.6-2.1,6.9-3.2c0.6-0.3,1.2-0.6,1.8-0.9
		c-0.1-0.8-0.2-1.5-0.3-2.2c-1.9-1.1-3.9-2-5.7-3.2c-3.7-2.5-6.1-5.9-7.3-10.1c-0.6-2.3-0.7-3.9-0.3-6c0.4,0.2,0.8,0.3,1.1,0.5
		c3,1.7,6,3.5,9,5.2c0.8,0.5,1.4,1.1,1.8,2c1,2.3,2.1,4.6,3.2,6.9c0.2,0.5,0.5,0.9,0.8,1.5c0.8-0.1,1.6-0.1,2.4-0.2
		c0.5-1.2,1.1-2.4,1.7-3.6c2.4-4.4,5.9-7.7,10.8-9.2c2.2-0.7,4.4-0.9,6.8-0.6c-1.4,2.4-2.7,4.6-4,6.9c-0.6,1.1-1.3,2.1-1.9,3.3
		c-0.5,0.9-1.2,1.4-2,1.8C59.6,15.5,56.9,16.8,54.2,18z"/>
	<path d="M76.6,6.5c2.4,3,4.2,6.2,5.7,9.6c1.7,3.7,3.1,7.6,4.1,11.6c1.1,4.4,1.3,8.8,1,13.3c-0.2,3.2-1.4,6.1-2.9,8.8
		c-1.3,2.3-2.8,4.4-4.3,6.5c-1.5,2.2-3.6,3.9-5.9,5.4c-0.5,0.3-1,0.6-1.6,0.7c-2.3,0.5-3.5-0.1-4.5-2.3c-0.9-1.9-1-4-1.2-6
		c-0.1-1.3,0-2.5,0-3.8c-0.1-1.1,0.4-1.9,1.2-2.6c2.4-2.2,4.4-4.7,6.2-7.3c2.8-4,4.7-8.4,5.7-13.1c1-4.4,0.7-8.7-0.4-13
		c-0.6-2.3-1.5-4.5-2.6-6.7C76.9,7.3,76.7,6.9,76.6,6.5z"/>
	<path d="M32.9,48.5c0,2.6,0.1,5,0,7.3c-0.1,1.6-0.4,3.2-1.2,4.6c-1.2,2.2-2.9,2.8-5.2,1.7c-1-0.5-2-1.1-2.8-1.8
		c-2.1-1.7-3.9-3.8-5.3-6.2c-1-1.7-2-3.5-3.2-5.1c-1.4-2-2-4.2-2.4-6.5c-0.3-1.7-0.4-3.4-0.4-5.2c0-4.8,0.9-9.4,2.4-13.9
		c2-6.1,4.9-11.8,8.3-17.2c0.1-0.1,0.2-0.2,0.6-0.5c-0.3,0.8-0.4,1.2-0.6,1.6c-1.7,3.2-2.8,6.6-3.4,10.2c-0.6,4.2-0.3,8.4,1,12.6
		c1.7,5.8,4.8,10.8,8.9,15.2C30.6,46.5,31.8,47.5,32.9,48.5z"/>
	<path d="M74.9,67.6c-0.7,7.1-7.3,14.8-15.8,13.6c1.2-2.4,2.6-4.7,4.1-7.1C68.1,74.1,71.6,71.2,74.9,67.6z"/>
	<path d="M24.6,67.9c1.8,1.5,3.6,3,5.5,4.3c1.9,1.2,4.1,2,6.5,2c1.4,2.3,2.7,4.6,4.1,7c-1.5,0.4-2.9,0.3-4.2,0
		c-3.1-0.7-5.7-2.2-7.7-4.7C26.6,74,25.2,71.1,24.6,67.9z"/>
	<path d="M48.5,99.2c-2.9,0-3.8-0.5-5.7-1.1c0-2.3-0.1-4-0.2-6.2c1.7,0.2,4.1,0.3,5.9,0.4C48.5,94.4,48.5,97,48.5,99.2z"/>
	<path d="M57.6,97.5c-1.2,1-3.2,1.4-5.1,1.4c0-2.4,0-4.3,0-6.3c1.8-0.2,3.8-0.1,5.4-0.3C57.9,94.2,57.8,95.8,57.6,97.5z"/>
	<path d="M30.8,90.4c2,0.3,5.6,1,7.4,1.3c0.3,1.6-0.1,3.5,0.1,4.9C36.1,95.6,32.5,92.7,30.8,90.4z"/>
	<path d="M61.3,96.3c0,0,0.1-3.5,0.1-4.3c1.2-0.2,5.8-1,7.3-1.3c-1.2,1.4-3.7,3.3-3.7,3.3L61.3,96.3z"/>
</g>
</svg>
