<?xml version="1.0" encoding="utf-8"?>
<!-- Generator: Adobe Illustrator 22.1.0, SVG Export Plug-In . SVG Version: 6.00 Build 0)  -->
<svg version="1.1" xmlns="http://www.w3.org/2000/svg" xmlns:xlink="http://www.w3.org/1999/xlink" x="0px" y="0px"
	 viewBox="0 0 100 100" style="enable-background:new 0 0 100 100;" xml:space="preserve">
<style type="text/css">
	.st0{fill:#3EAADB;stroke:#3EAADB;stroke-width:2;stroke-miterlimit:10;}
	.st1{fill:#FFFFFF;stroke:#3EAADB;stroke-width:2;stroke-miterlimit:10;}
	.st2{fill:#E85245;}
	.st3{fill:#3E3D40;}
	.st4{fill:#1A1A1A;}
	.st5{fill:#3EAADB;}
	.st6{fill:#D1D1D1;}
</style>
<g id="Ebene_2">
</g>
<g id="Ebene_1">
	<line class="st0" x1="64.7" y1="36.8" x2="78.7" y2="18.8"/>
	<line class="st0" x1="21.1" y1="81.2" x2="36.3" y2="62.3"/>
	<line class="st0" x1="67.4" y1="67.9" x2="81" y2="78.9"/>
	<line class="st0" x1="19" y1="21.3" x2="33.8" y2="33.9"/>
	<path class="st1" d="M68.2,68.7H31.3V31.5h36.8V68.7z"/>
	<circle class="st5" cx="78.7" cy="18.8" r="2.3"/>
	<circle class="st5" cx="19" cy="21.3" r="2.3"/>
	<path class="st5" d="M5.6,7.7C-1.3,15.6-1.5,27,4.4,35.1c-4.7-7-4.4-16.6,1.4-23.3c7-8,19.1-8.8,27.1-1.9l3.9-4.5
		C27.6-2.5,13.6-1.6,5.6,7.7z"/>
	<path class="st5" d="M92.2,5.7c-7.9-6.9-19.3-7.1-27.5-1.2c7-4.7,16.6-4.4,23.3,1.4c8,7,8.8,19.1,1.9,27.1l4.5,3.9
		C102.4,27.7,101.4,13.7,92.2,5.7z"/>
	<path class="st5" d="M93.4,93.4c7.4-7.4,8.5-18.8,3.1-27.3c4.2,7.3,3.2,16.9-3,23.1c-7.5,7.5-19.6,7.5-27.1,0l-4.2,4.2
		C70.8,102.1,84.8,102.1,93.4,93.4z"/>
	<path class="st5" d="M7.3,94.1c7.7,7.1,19.1,7.7,27.4,2C27.6,100.6,18,100,11.5,94c-7.8-7.2-8.3-19.3-1.1-27.1l-4.4-4
		C-2.2,71.8-1.7,85.8,7.3,94.1z"/>
	<ellipse transform="matrix(0.9807 -0.1957 0.1957 0.9807 -13.8772 17.38)" class="st5" cx="81" cy="78.9" rx="2.3" ry="2.3"/>
	<circle class="st5" cx="21.1" cy="81.2" r="2.3"/>
	<polygon class="st6" points="49.6,49.1 48.9,49.8 49.6,50.4 50.3,49.8 	"/>
	<path class="st5" d="M30,30v40h40V30H30z M44.6,44.8h2.3v2.3h-2.3V44.8z M37.4,39.6H40v4.3c0,0.7,0.2,1,0.6,1c0.5,0,0.7-0.4,0.7-1
		v-4.3H44v4.3c0,2.1-1.2,3.4-3.3,3.4c-2.2,0-3.3-1.3-3.3-3.4V39.6z M41.1,58c0.6,0,1-0.4,1.2-1h2.7c-0.2,2-1.8,3.5-4,3.5
		c-2.3,0-4-1.8-4-4c0-2.3,1.8-4,4-4c2.1,0,3.7,1.5,4,3.5h-2.7c-0.2-0.7-0.6-1.1-1.2-1.1c-0.7,0-1.3,0.6-1.3,1.5
		C39.9,57.4,40.4,58,41.1,58z M48.1,60.3h-2.3V58h2.3V60.3z M48.8,39.6h3.5l1,3.6l1-3.6h3.5v7.5h-2.7v-2.8l-0.9,2.8h-1.9l-0.9-2.8
		v2.8h-2.7V39.6z M53.4,60.3H50v-7.5h3.4c2.1,0,3.8,1.5,3.8,3.8C57.2,58.8,55.5,60.3,53.4,60.3z M60.1,60.3h-2.3V58h2.3V60.3z
		 M61.1,47.1h-2.3v-2.3h2.3V47.1z"/>
	<path class="st5" d="M53.2,55.1h-0.6V58h0.6c0.9,0,1.3-0.8,1.3-1.4C54.5,55.8,54.1,55.1,53.2,55.1z"/>
</g>
</svg>
