<?xml version="1.0" encoding="utf-8"?>
<!-- Generator: Adobe Illustrator 22.1.0, SVG Export Plug-In . SVG Version: 6.00 Build 0)  -->
<svg version="1.1" xmlns="http://www.w3.org/2000/svg" xmlns:xlink="http://www.w3.org/1999/xlink" x="0px" y="0px"
	 viewBox="0 0 100 100" style="enable-background:new 0 0 100 100;" xml:space="preserve">
<style type="text/css">
	.st0{fill:#3EAADB;}
	.st1{fill:#FFFFFF;}
	.st2{fill:#FFFFFF;stroke:#3EAADB;stroke-width:2;stroke-miterlimit:10;}
	.st3{fill:#E85245;}
	.st4{fill:#3E3D40;}
	.st5{fill:#1A1A1A;}
</style>
<g id="Ebene_2">
</g>
<g id="Ebene_1">
	<g>
		<line class="st0" x1="64.7" y1="36.8" x2="78.7" y2="18.8"/>
		<rect x="60.3" y="26.8" transform="matrix(0.6157 -0.788 0.788 0.6157 5.6233 67.1997)" class="st0" width="22.8" height="2"/>
	</g>
	<g>
		<line class="st1" x1="21.1" y1="81.2" x2="36.3" y2="62.3"/>
		
			<rect x="16.6" y="70.8" transform="matrix(0.6265 -0.7794 0.7794 0.6265 -45.2153 49.2032)" class="st1" width="24.3" height="2"/>
	</g>
	<g>
		<line class="st0" x1="67.4" y1="67.9" x2="81" y2="78.9"/>
		
			<rect x="73.2" y="64.6" transform="matrix(0.6311 -0.7757 0.7757 0.6311 -29.5495 84.6469)" class="st0" width="2" height="17.5"/>
	</g>
	<g>
		<line class="st0" x1="19" y1="21.3" x2="33.8" y2="33.9"/>
		<rect x="25.4" y="17.9" transform="matrix(0.647 -0.7625 0.7625 0.647 -11.7288 29.8739)" class="st0" width="2" height="19.5"/>
	</g>
	<path class="st2" d="M68.2,68.7H31.3V31.5h36.8V68.7z"/>
	<circle class="st0" cx="78.7" cy="18.8" r="2.3"/>
	<circle class="st0" cx="19" cy="21.3" r="2.3"/>
	<path class="st0" d="M5.6,7.7C-1.3,15.6-1.5,27,4.4,35.1c-4.7-7-4.4-16.6,1.4-23.3c7-8,19.1-8.8,27.1-1.9l3.9-4.5
		C27.6-2.5,13.6-1.6,5.6,7.7z"/>
	<path class="st0" d="M92.2,5.7c-7.9-6.9-19.3-7.1-27.5-1.2c7-4.7,16.6-4.4,23.3,1.4c8,7,8.8,19.1,1.9,27.1l4.5,3.9
		C102.4,27.7,101.4,13.7,92.2,5.7z"/>
	<path class="st0" d="M93.4,93.4c7.4-7.4,8.5-18.8,3.1-27.3c4.2,7.3,3.2,16.9-3,23.1c-7.5,7.5-19.6,7.5-27.1,0l-4.2,4.2
		C70.8,102.1,84.8,102.1,93.4,93.4z"/>
	<path class="st0" d="M7.3,94.1c7.7,7.1,19.1,7.7,27.4,2C27.6,100.6,18,100,11.5,94c-7.8-7.2-8.3-19.3-1.1-27.1l-4.4-4
		C-2.2,71.8-1.7,85.8,7.3,94.1z"/>
	<ellipse transform="matrix(0.9807 -0.1957 0.1957 0.9807 -13.8772 17.38)" class="st0" cx="81" cy="78.9" rx="2.3" ry="2.3"/>
	<circle class="st0" cx="21.1" cy="81.2" r="2.3"/>
	<polygon class="st1" points="49.6,49.1 48.9,49.8 49.6,50.4 50.3,49.8 	"/>
	<rect x="30" y="30" class="st0" width="40" height="40"/>
	<g>
		<rect x="44.7" y="43.9" class="st1" width="2.8" height="2.8"/>
		<path class="st1" d="M35.7,37.5H39v5.4c0,0.8,0.2,1.3,0.8,1.3c0.6,0,0.8-0.4,0.8-1.3v-5.4h3.3v5.3c0,2.6-1.5,4.2-4.1,4.2
			c-2.7,0-4.1-1.6-4.1-4.2V37.5z"/>
		<path class="st1" d="M40.4,60.3c0.7,0,1.3-0.5,1.5-1.3h3.4c-0.3,2.5-2.3,4.3-4.9,4.3c-2.8,0-4.9-2.2-4.9-4.9
			c0-2.8,2.2-4.9,4.9-4.9c2.6,0,4.6,1.8,4.9,4.3h-3.4c-0.2-0.8-0.8-1.3-1.5-1.3c-0.9,0-1.6,0.7-1.6,1.9
			C38.8,59.5,39.5,60.3,40.4,60.3z"/>
		<rect x="46.1" y="60.2" class="st1" width="2.8" height="2.8"/>
		<polygon class="st1" points="49.8,37.5 54.1,37.5 55.4,42 56.6,37.5 61,37.5 61,46.8 57.6,46.8 57.6,43.3 56.5,46.8 54.2,46.8 
			53.1,43.3 53.1,46.8 49.8,46.8 		"/>
		<rect x="60.8" y="60.2" class="st1" width="2.8" height="2.8"/>
		<rect x="62.2" y="43.9" class="st1" width="2.8" height="2.8"/>
		<path class="st1" d="M55.5,53.8h-4.2v9.3h4.2c2.6,0,4.6-1.8,4.6-4.6C60.1,55.6,58,53.8,55.5,53.8z M55.2,60.2h-0.7v-3.6h0.7
			c1.1,0,1.5,0.9,1.5,1.8C56.8,59.2,56.4,60.2,55.2,60.2z"/>
	</g>
</g>
</svg>
