<?xml version="1.0" encoding="utf-8"?>
<!-- Generator: Adobe Illustrator 22.1.0, SVG Export Plug-In . SVG Version: 6.00 Build 0)  -->
<svg version="1.1" xmlns="http://www.w3.org/2000/svg" xmlns:xlink="http://www.w3.org/1999/xlink" x="0px" y="0px"
	 viewBox="0 0 100 100" style="enable-background:new 0 0 100 100;" xml:space="preserve">
<style type="text/css">
	.st0{opacity:0.96;fill:#E53434;}
	.st1{fill:#E85245;}
	.st2{fill:#3E3D40;}
	.st3{fill:#1A1A1A;}
</style>
<g id="Ebene_2">
</g>
<g id="Ebene_1">
	<path class="st0" d="M27.5,61c7.6,0.3,13.5,6.8,13.2,14.4c-0.3,7.6-6.8,13.5-14.4,13.2c-7.6-0.3-13.5-6.8-13.2-14.4
		C13.4,66.6,19.9,60.7,27.5,61z"/>
	<path class="st0" d="M73.8,12c7.6,0.3,13.5,6.8,13.2,14.4c-0.3,7.6-6.8,13.5-14.4,13.2c-7.6-0.3-13.5-6.8-13.2-14.4
		C59.7,17.6,66.2,11.7,73.8,12z"/>
	<path class="st0" d="M48.1,68.8c0.5-11.8,10.5-21,22.3-20.5c11.8,0.5,21,10.5,20.5,22.3c-0.5,11.8-10.5,21-22.3,20.5
		C56.8,90.5,47.6,80.6,48.1,68.8z"/>
	<path class="st0" d="M9.2,30.7c0.5-11.8,10.5-21,22.3-20.5c11.8,0.5,21,10.5,20.5,22.3c-0.5,11.8-10.5,21-22.3,20.5
		C17.9,52.5,8.7,42.5,9.2,30.7z"/>
	<g>
		<path class="st2" d="M95.4,100H4.6C2.1,100,0,97.9,0,95.4V4.6C0,2.1,2.1,0,4.6,0h90.8c2.5,0,4.6,2.1,4.6,4.6v90.8
			C100,97.9,97.9,100,95.4,100z M4.6,3.9c-0.4,0-0.8,0.3-0.8,0.8v90.8c0,0.4,0.3,0.8,0.8,0.8h90.8c0.4,0,0.8-0.3,0.8-0.8V4.6
			c0-0.4-0.3-0.8-0.8-0.8H4.6z"/>
	</g>
</g>
</svg>
